M48
;DRILL file {Pcbnew (2013-may-18)-stable} date Tue 18 Mar 2014 20:31:30 GMT
;FORMAT={-:-/ absolute / metric / decimal}
FMAT,2
METRIC,TZ
T1C0.635
T2C0.650
T3C0.800
T4C0.813
T5C0.899
T6C1.000
T7C1.001
T8C1.016
T9C1.100
T10C1.143
T11C1.300
T12C1.524
T13C1.801
T14C2.200
T15C3.048
%
G90
G05
M71
T1
X147.574Y-199.263
X183.642Y-187.96
X196.977Y-199.263
X198.755Y-184.15
X198.755Y-186.69
X198.882Y-189.23
X201.168Y-181.61
X207.645Y-180.975
X214.122Y-167.132
X222.377Y-187.071
X222.377Y-190.5
X224.282Y-192.024
X224.409Y-186.563
X227.457Y-176.53
X228.092Y-178.943
X228.854Y-166.116
X247.2Y-180.69
X247.2Y-185.49
X247.2Y-186.69
X248.4Y-184.29
X248.4Y-185.49
X249.174Y-167.513
X249.301Y-169.164
X249.936Y-163.83
X252.Y-184.29
X254.508Y-185.547
X254.611Y-178.435
X254.635Y-187.706
X265.938Y-167.767
X265.938Y-170.18
X266.065Y-166.116
X272.669Y-195.58
X274.194Y-177.167
X280.888Y-187.706
X282.793Y-187.706
X285.52Y-154.5
X286.29Y-186.88
X305.943Y-190.373
X306.07Y-192.278
X320.91Y-170.69
T2
X151.Y-190.5
X153.5Y-190.5
T3
X152.527Y-157.508
X152.527Y-161.008
T4
X193.44Y-154.94
X193.44Y-160.02
X201.06Y-154.94
X201.06Y-160.02
X205.44Y-154.94
X205.44Y-160.02
X213.06Y-154.94
X213.06Y-160.02
X229.44Y-154.94
X229.44Y-160.02
X237.06Y-154.94
X237.06Y-160.02
X241.44Y-154.94
X241.44Y-160.02
X249.06Y-154.94
X249.06Y-160.02
T5
X135.101Y-170.52
X135.101Y-174.92
X135.101Y-195.92
X135.101Y-200.32
T6
X218.75Y-164.48
X221.25Y-164.48
X223.75Y-164.48
T8
X132.Y-210.82
X132.Y-213.36
X132.Y-215.9
X135.Y-210.82
X135.Y-213.36
X135.Y-215.9
X138.Y-210.82
X138.Y-213.36
X138.Y-215.9
X141.Y-210.82
X141.Y-213.36
X141.Y-215.9
X144.Y-210.82
X144.Y-213.36
X144.Y-215.9
X147.Y-210.82
X147.Y-213.36
X147.Y-215.9
X150.Y-210.82
X150.Y-213.36
X150.Y-215.9
X153.Y-210.82
X153.Y-213.36
X153.Y-215.9
X156.Y-210.82
X156.Y-213.36
X156.Y-215.9
X159.Y-210.82
X159.Y-213.36
X159.Y-215.9
X162.Y-210.82
X162.Y-213.36
X162.Y-215.9
X165.Y-210.82
X165.Y-213.36
X165.Y-215.9
X168.Y-210.82
X168.Y-213.36
X168.Y-215.9
X171.Y-210.82
X171.Y-213.36
X171.Y-215.9
X172.5Y-194.31
X172.5Y-196.85
X172.5Y-199.39
X172.5Y-201.93
X174.Y-210.82
X174.Y-213.36
X174.Y-215.9
X177.Y-210.82
X177.Y-213.36
X177.Y-215.9
X180.Y-210.82
X180.Y-213.36
X180.Y-215.9
X183.Y-210.82
X183.Y-213.36
X183.Y-215.9
X186.Y-210.82
X186.Y-213.36
X186.Y-215.9
X189.Y-210.82
X189.Y-213.36
X189.Y-215.9
X192.Y-210.82
X192.Y-213.36
X192.Y-215.9
X195.Y-210.82
X195.Y-213.36
X195.Y-215.9
X198.Y-210.82
X198.Y-213.36
X198.Y-215.9
X201.Y-210.82
X201.Y-213.36
X201.Y-215.9
X204.Y-210.82
X204.Y-213.36
X204.Y-215.9
X205.21Y-182.88
X205.21Y-185.42
X205.21Y-187.96
X207.Y-167.64
X207.Y-170.18
X207.Y-210.82
X207.Y-213.36
X207.Y-215.9
X207.75Y-182.88
X207.75Y-185.42
X207.75Y-187.96
X210.Y-210.82
X210.Y-213.36
X210.Y-215.9
X213.Y-210.82
X213.Y-213.36
X213.Y-215.9
X216.Y-210.82
X216.Y-213.36
X216.Y-215.9
X219.Y-210.82
X219.Y-213.36
X219.Y-215.9
X222.Y-210.82
X222.Y-213.36
X222.Y-215.9
X225.Y-210.82
X225.Y-213.36
X225.Y-215.9
X229.5Y-210.82
X229.5Y-213.36
X229.5Y-215.9
X232.5Y-210.82
X232.5Y-213.36
X232.5Y-215.9
X234.Y-176.53
X234.Y-179.07
X234.Y-181.61
X234.Y-184.15
X235.5Y-210.82
X235.5Y-213.36
X235.5Y-215.9
X237.98Y-176.53
X237.98Y-179.07
X237.98Y-181.61
X237.98Y-184.15
X237.98Y-186.69
X238.5Y-210.82
X238.5Y-213.36
X238.5Y-215.9
X240.52Y-176.53
X240.52Y-179.07
X240.52Y-181.61
X240.52Y-184.15
X240.52Y-186.69
X241.5Y-210.82
X241.5Y-213.36
X241.5Y-215.9
X244.5Y-210.82
X244.5Y-213.36
X244.5Y-215.9
X247.5Y-210.82
X247.5Y-213.36
X247.5Y-215.9
X250.5Y-210.82
X250.5Y-213.36
X250.5Y-215.9
X253.5Y-210.82
X253.5Y-213.36
X253.5Y-215.9
X256.5Y-210.82
X256.5Y-213.36
X256.5Y-215.9
X259.5Y-210.82
X259.5Y-213.36
X259.5Y-215.9
X262.5Y-210.82
X262.5Y-213.36
X262.5Y-215.9
X265.5Y-210.82
X265.5Y-213.36
X265.5Y-215.9
X266.62Y-177.04
X266.62Y-179.58
X266.62Y-182.12
X267.75Y-161.29
X267.75Y-163.83
X268.5Y-210.82
X268.5Y-213.36
X268.5Y-215.9
X269.16Y-177.04
X269.16Y-179.58
X269.16Y-182.12
X271.5Y-210.82
X271.5Y-213.36
X271.5Y-215.9
X274.5Y-210.82
X274.5Y-213.36
X274.5Y-215.9
X277.5Y-210.82
X277.5Y-213.36
X277.5Y-215.9
X280.5Y-210.82
X280.5Y-213.36
X280.5Y-215.9
X282.69Y-181.61
X283.5Y-210.82
X283.5Y-213.36
X283.5Y-215.9
X285.23Y-181.61
X286.5Y-210.82
X286.5Y-213.36
X286.5Y-215.9
X287.77Y-181.61
X289.5Y-210.82
X289.5Y-213.36
X289.5Y-215.9
X290.31Y-181.61
X292.5Y-210.82
X292.5Y-213.36
X292.5Y-215.9
X295.5Y-210.82
X295.5Y-213.36
X295.5Y-215.9
X298.5Y-210.82
X298.5Y-213.36
X298.5Y-215.9
X301.5Y-210.82
X301.5Y-213.36
X301.5Y-215.9
X304.5Y-210.82
X304.5Y-213.36
X304.5Y-215.9
X307.5Y-210.82
X307.5Y-213.36
X307.5Y-215.9
X310.5Y-210.82
X310.5Y-213.36
X310.5Y-215.9
X313.5Y-210.82
X313.5Y-213.36
X313.5Y-215.9
X316.5Y-210.82
X316.5Y-213.36
X316.5Y-215.9
X319.5Y-210.82
X319.5Y-213.36
X319.5Y-215.9
X322.5Y-210.82
X322.5Y-213.36
X322.5Y-215.9
T9
X294.08Y-161.8
X294.08Y-164.34
X294.08Y-166.88
X294.08Y-169.42
X294.08Y-171.96
X294.08Y-174.5
X294.08Y-177.04
X294.08Y-179.58
X299.16Y-163.07
X299.16Y-165.61
X299.16Y-168.15
X299.16Y-170.69
X299.16Y-173.23
X299.16Y-175.77
X299.16Y-178.31
T10
X256.21Y-172.72
X258.75Y-172.72
X261.29Y-172.72
T11
X163.399Y-161.625
T12
X317.91Y-160.53
X317.91Y-165.61
X317.91Y-175.77
X317.91Y-180.85
X318.Y-189.23
X318.Y-194.31
X318.Y-199.39
T13
X187.601Y-161.625
T14
X216.45Y-157.48
X226.05Y-157.48
T15
X142.24Y-175.26
X223.52Y-203.2
X320.04Y-154.94
T7
X138.201Y-160.291G85X138.201Y-162.289
G05
X138.201Y-185.691G85X138.201Y-187.689
G05
X140.201Y-165.989G85X142.2Y-165.989
G05
X140.201Y-191.389G85X142.2Y-191.389
G05
X144.2Y-160.291G85X144.2Y-162.289
G05
X144.2Y-185.691G85X144.2Y-187.689
G05
T0
M30
