G04 (created by PCBNEW (2013-may-18)-stable) date Tue 18 Mar 2014 20:31:26 GMT*
%MOIN*%
G04 Gerber Fmt 3.4, Leading zero omitted, Abs format*
%FSLAX34Y34*%
G01*
G70*
G90*
G04 APERTURE LIST*
%ADD10C,0.00590551*%
%ADD11C,0.085748*%
%ADD12R,0.085748X0.085748*%
%ADD13R,0.365748X0.365748*%
%ADD14R,0.031748X0.075748*%
%ADD15R,0.075748X0.031748*%
%ADD16R,0.106348X0.035448*%
%ADD17R,0.114148X0.094448*%
%ADD18C,0.051148*%
%ADD19R,0.047248X0.055148*%
%ADD20R,0.055148X0.047248*%
%ADD21C,0.0393701*%
%ADD22R,0.0393701X0.0393701*%
%ADD23R,0.073648X0.032248*%
%ADD24C,0.070748*%
%ADD25R,0.065748X0.031748*%
%ADD26R,0.049248X0.049248*%
%ADD27R,0.070848X0.039348*%
%ADD28R,0.070748X0.050748*%
%ADD29R,0.050748X0.070748*%
%ADD30R,0.075748X0.075748*%
%ADD31C,0.075748*%
%ADD32O,0.110236X0.0787402*%
%ADD33R,0.062948X0.062948*%
%ADD34R,0.0723291X0.0998882*%
%ADD35R,0.0866142X0.0866142*%
%ADD36C,0.0866142*%
%ADD37R,0.0787402X0.0787402*%
%ADD38C,0.0787402*%
%ADD39R,0.115748X0.115748*%
%ADD40C,0.115748*%
%ADD41R,0.153548X0.153548*%
%ADD42R,0.047248X0.039348*%
%ADD43R,0.057048X0.077148*%
%ADD44R,0.068848X0.059048*%
%ADD45R,0.090548X0.090548*%
%ADD46R,0.078748X0.059048*%
%ADD47R,0.078748X0.078748*%
%ADD48C,0.066948*%
%ADD49C,0.086648*%
%ADD50C,0.175748*%
%ADD51O,0.0748031X0.0944882*%
%ADD52C,0.153543*%
G04 APERTURE END LIST*
G54D10*
G54D11*
X102870Y-68000D03*
G54D12*
X100870Y-68000D03*
G54D11*
X101870Y-68000D03*
G54D13*
X101870Y-61500D03*
G54D14*
X110397Y-64950D03*
X110082Y-64950D03*
X109767Y-64950D03*
X109452Y-64950D03*
X109137Y-64950D03*
X108822Y-64950D03*
X110712Y-64950D03*
X111027Y-64950D03*
X111342Y-64950D03*
X111657Y-64950D03*
X111972Y-64950D03*
X110397Y-69450D03*
X110082Y-69450D03*
X109767Y-69450D03*
X109452Y-69450D03*
X109137Y-69450D03*
X108822Y-69450D03*
X110712Y-69450D03*
X111027Y-69450D03*
X111342Y-69450D03*
X111657Y-69450D03*
X111972Y-69450D03*
G54D15*
X108147Y-67200D03*
X112647Y-67200D03*
X108147Y-67515D03*
X112647Y-67515D03*
X112647Y-67830D03*
X108147Y-67830D03*
X108147Y-68145D03*
X112647Y-68145D03*
X112647Y-68460D03*
X108147Y-68460D03*
X108147Y-68775D03*
X112647Y-68775D03*
X112647Y-66885D03*
X108147Y-66885D03*
X108147Y-66570D03*
X112647Y-66570D03*
X112647Y-66255D03*
X108147Y-66255D03*
X108147Y-65940D03*
X112647Y-65940D03*
X112647Y-65625D03*
X108147Y-65625D03*
G54D16*
X54212Y-67370D03*
X54212Y-67685D03*
X54212Y-68000D03*
X54212Y-68315D03*
X54212Y-68630D03*
G54D17*
X54173Y-66248D03*
X52008Y-66248D03*
X54173Y-69752D03*
X52008Y-69752D03*
G54D18*
X53189Y-67134D03*
X53189Y-68866D03*
G54D16*
X54212Y-77370D03*
X54212Y-77685D03*
X54212Y-78000D03*
X54212Y-78315D03*
X54212Y-78630D03*
G54D17*
X54173Y-76248D03*
X52008Y-76248D03*
X54173Y-79752D03*
X52008Y-79752D03*
G54D18*
X53189Y-77134D03*
X53189Y-78866D03*
G54D19*
X58759Y-72067D03*
X59134Y-72933D03*
X58384Y-72933D03*
G54D20*
X103188Y-71500D03*
X102322Y-71875D03*
X102322Y-71125D03*
X103188Y-73500D03*
X102322Y-73875D03*
X102322Y-73125D03*
G54D21*
X96850Y-68303D03*
X96850Y-68775D03*
X96850Y-69720D03*
X96850Y-70192D03*
X96850Y-70665D03*
X96850Y-71137D03*
X96850Y-71610D03*
X96850Y-72082D03*
X96850Y-72555D03*
X96850Y-73027D03*
X96850Y-73500D03*
X97322Y-73500D03*
X97322Y-73027D03*
X97322Y-72555D03*
X97322Y-72082D03*
X97322Y-71610D03*
X97322Y-71137D03*
X97322Y-70665D03*
X97322Y-70192D03*
X97322Y-69720D03*
X97795Y-69720D03*
X97795Y-70192D03*
X97795Y-70665D03*
X97795Y-71137D03*
X97795Y-71610D03*
X97795Y-72082D03*
X97795Y-72555D03*
X97795Y-73027D03*
X97795Y-73500D03*
X98267Y-73500D03*
X98267Y-73027D03*
X98267Y-72555D03*
X98267Y-72082D03*
X98267Y-71610D03*
X98267Y-71137D03*
X98267Y-70665D03*
X98267Y-70192D03*
X98267Y-69720D03*
X98740Y-69720D03*
X98740Y-70192D03*
X98740Y-70665D03*
X98740Y-71137D03*
X98740Y-71610D03*
X98740Y-72082D03*
X98740Y-72555D03*
X98740Y-73027D03*
X98740Y-73500D03*
G54D22*
X99212Y-73500D03*
G54D21*
X99212Y-73027D03*
X99212Y-72555D03*
X99212Y-72082D03*
X99212Y-71610D03*
X99212Y-71137D03*
X99212Y-70665D03*
X99212Y-70192D03*
X99212Y-69720D03*
X99212Y-68775D03*
X99212Y-68303D03*
G54D23*
X117008Y-76872D03*
X117008Y-77128D03*
X117008Y-77384D03*
X117008Y-77640D03*
X119210Y-76108D03*
X117008Y-76104D03*
X117008Y-76360D03*
X117008Y-76616D03*
X119212Y-77896D03*
X119212Y-77640D03*
X119212Y-77384D03*
X119212Y-77128D03*
X119212Y-76872D03*
X119212Y-76616D03*
X117008Y-77896D03*
X119210Y-76360D03*
X117008Y-75848D03*
X117008Y-78152D03*
X119212Y-78152D03*
X119212Y-75848D03*
X117008Y-75593D03*
X117008Y-78407D03*
X119212Y-78407D03*
X119212Y-75593D03*
X117008Y-75337D03*
X117008Y-78663D03*
X119212Y-78663D03*
X119212Y-75337D03*
X98110Y-76872D03*
X98110Y-77128D03*
X98110Y-77384D03*
X98110Y-77640D03*
X100312Y-76108D03*
X98110Y-76104D03*
X98110Y-76360D03*
X98110Y-76616D03*
X100314Y-77896D03*
X100314Y-77640D03*
X100314Y-77384D03*
X100314Y-77128D03*
X100314Y-76872D03*
X100314Y-76616D03*
X98110Y-77896D03*
X100312Y-76360D03*
X98110Y-75848D03*
X98110Y-78152D03*
X100314Y-78152D03*
X100314Y-75848D03*
X98110Y-75593D03*
X98110Y-78407D03*
X100314Y-78407D03*
X100314Y-75593D03*
X98110Y-75337D03*
X98110Y-78663D03*
X100314Y-78663D03*
X100314Y-75337D03*
G54D14*
X86515Y-67250D03*
X86200Y-67250D03*
X85885Y-67250D03*
X85570Y-67250D03*
X85255Y-67250D03*
X84940Y-67250D03*
X86830Y-67250D03*
X87145Y-67250D03*
X87460Y-67250D03*
X87775Y-67250D03*
X88090Y-67250D03*
X86515Y-71750D03*
X86200Y-71750D03*
X85885Y-71750D03*
X85570Y-71750D03*
X85255Y-71750D03*
X84940Y-71750D03*
X86830Y-71750D03*
X87145Y-71750D03*
X87460Y-71750D03*
X87775Y-71750D03*
X88090Y-71750D03*
G54D15*
X84265Y-69500D03*
X88765Y-69500D03*
X84265Y-69815D03*
X88765Y-69815D03*
X88765Y-70130D03*
X84265Y-70130D03*
X84265Y-70445D03*
X88765Y-70445D03*
X88765Y-70760D03*
X84265Y-70760D03*
X84265Y-71075D03*
X88765Y-71075D03*
X88765Y-69185D03*
X84265Y-69185D03*
X84265Y-68870D03*
X88765Y-68870D03*
X88765Y-68555D03*
X84265Y-68555D03*
X84265Y-68240D03*
X88765Y-68240D03*
X88765Y-67925D03*
X84265Y-67925D03*
G54D24*
X93330Y-61000D03*
X93330Y-63000D03*
X90330Y-61000D03*
X90330Y-63000D03*
X80881Y-63000D03*
X80881Y-61000D03*
X83881Y-63000D03*
X83881Y-61000D03*
G54D25*
X81124Y-80650D03*
X81124Y-80400D03*
X81124Y-80140D03*
X81124Y-79880D03*
X81124Y-79630D03*
X81124Y-79370D03*
X81124Y-79110D03*
X81124Y-78860D03*
X81124Y-78600D03*
X81124Y-78350D03*
X81124Y-78090D03*
X81124Y-77830D03*
X81124Y-77580D03*
X81124Y-77320D03*
X78324Y-77320D03*
X78324Y-77580D03*
X78324Y-77820D03*
X78324Y-78090D03*
X78324Y-78350D03*
X78324Y-78600D03*
X78324Y-78860D03*
X78324Y-79110D03*
X78324Y-79370D03*
X78324Y-79630D03*
X78324Y-79880D03*
X78324Y-80140D03*
X78324Y-80400D03*
X78324Y-80650D03*
X62226Y-80650D03*
X62226Y-80400D03*
X62226Y-80140D03*
X62226Y-79880D03*
X62226Y-79630D03*
X62226Y-79370D03*
X62226Y-79110D03*
X62226Y-78860D03*
X62226Y-78600D03*
X62226Y-78350D03*
X62226Y-78090D03*
X62226Y-77830D03*
X62226Y-77580D03*
X62226Y-77320D03*
X59426Y-77320D03*
X59426Y-77580D03*
X59426Y-77820D03*
X59426Y-78090D03*
X59426Y-78350D03*
X59426Y-78600D03*
X59426Y-78860D03*
X59426Y-79110D03*
X59426Y-79370D03*
X59426Y-79630D03*
X59426Y-79880D03*
X59426Y-80140D03*
X59426Y-80400D03*
X59426Y-80650D03*
G54D26*
X113940Y-63859D03*
X113940Y-62541D03*
G54D27*
X109938Y-63450D03*
X112038Y-63450D03*
X109938Y-62950D03*
X109938Y-62450D03*
X109938Y-61950D03*
X112038Y-62950D03*
X112038Y-62450D03*
X112038Y-61950D03*
G54D28*
X113976Y-81375D03*
X113976Y-80625D03*
X117519Y-81375D03*
X117519Y-80625D03*
X126968Y-80625D03*
X126968Y-81375D03*
X125787Y-80625D03*
X125787Y-81375D03*
X116338Y-81375D03*
X116338Y-80625D03*
X115157Y-81375D03*
X115157Y-80625D03*
X118700Y-80625D03*
X118700Y-81375D03*
X112795Y-81375D03*
X112795Y-80625D03*
X111614Y-81375D03*
X111614Y-80625D03*
X110433Y-81375D03*
X110433Y-80625D03*
X122834Y-75875D03*
X122834Y-75125D03*
X93897Y-81375D03*
X93897Y-80625D03*
X121653Y-75875D03*
X121653Y-75125D03*
X111614Y-76625D03*
X111614Y-77375D03*
X110728Y-76625D03*
X110728Y-77375D03*
X109842Y-76625D03*
X109842Y-77375D03*
X108956Y-76625D03*
X108956Y-77375D03*
X108070Y-76625D03*
X108070Y-77375D03*
X95078Y-81375D03*
X95078Y-80625D03*
X58169Y-77875D03*
X58169Y-77125D03*
X90354Y-81375D03*
X90354Y-80625D03*
X96259Y-81375D03*
X96259Y-80625D03*
X97440Y-81375D03*
X97440Y-80625D03*
X98622Y-81375D03*
X98622Y-80625D03*
X108070Y-80625D03*
X108070Y-81375D03*
X106889Y-80625D03*
X106889Y-81375D03*
X105708Y-80625D03*
X105708Y-81375D03*
X104527Y-80625D03*
X104527Y-81375D03*
X92716Y-81375D03*
X92716Y-80625D03*
X103346Y-80625D03*
X103346Y-81375D03*
X102165Y-80625D03*
X102165Y-81375D03*
X100984Y-80625D03*
X100984Y-81375D03*
X99803Y-80625D03*
X99803Y-81375D03*
X70866Y-79625D03*
X70866Y-80375D03*
X69685Y-79625D03*
X69685Y-80375D03*
X124606Y-80625D03*
X124606Y-81375D03*
X105708Y-76625D03*
X105708Y-77375D03*
X106594Y-76625D03*
X106594Y-77375D03*
X91535Y-77625D03*
X91535Y-78375D03*
X90354Y-77625D03*
X90354Y-78375D03*
X89173Y-77625D03*
X89173Y-78375D03*
X87992Y-77625D03*
X87992Y-78375D03*
X86811Y-77625D03*
X86811Y-78375D03*
X100984Y-73125D03*
X100984Y-73875D03*
X100984Y-71125D03*
X100984Y-71875D03*
X61712Y-65125D03*
X61712Y-65875D03*
X91535Y-81375D03*
X91535Y-80625D03*
X119881Y-80625D03*
X119881Y-81375D03*
X121062Y-80625D03*
X121062Y-81375D03*
X122244Y-80625D03*
X122244Y-81375D03*
X123425Y-80625D03*
X123425Y-81375D03*
G54D29*
X67107Y-74500D03*
X66357Y-74500D03*
X109922Y-72000D03*
X109172Y-72000D03*
G54D28*
X117188Y-72825D03*
X117188Y-73575D03*
X116007Y-72825D03*
X116007Y-73575D03*
X114826Y-72825D03*
X114826Y-73575D03*
X113645Y-72825D03*
X113645Y-73575D03*
X117188Y-61575D03*
X117188Y-60825D03*
X116007Y-61575D03*
X116007Y-60825D03*
X113645Y-61575D03*
X113645Y-60825D03*
G54D29*
X107365Y-63700D03*
X108115Y-63700D03*
G54D28*
X114236Y-68325D03*
X114236Y-69075D03*
G54D29*
X56477Y-77000D03*
X55727Y-77000D03*
X70491Y-74500D03*
X71241Y-74500D03*
X68424Y-74500D03*
X69174Y-74500D03*
G54D28*
X114826Y-61575D03*
X114826Y-60825D03*
G54D29*
X76691Y-72500D03*
X77441Y-72500D03*
X76691Y-73500D03*
X77441Y-73500D03*
X76691Y-74500D03*
X77441Y-74500D03*
X85709Y-66000D03*
X84959Y-66000D03*
X81121Y-68500D03*
X81871Y-68500D03*
X81121Y-69500D03*
X81871Y-69500D03*
X81871Y-70500D03*
X81121Y-70500D03*
X86004Y-73000D03*
X85254Y-73000D03*
X86004Y-74000D03*
X85254Y-74000D03*
G54D28*
X65300Y-76675D03*
X65300Y-77425D03*
G54D29*
X107365Y-60700D03*
X108115Y-60700D03*
X107365Y-62200D03*
X108115Y-62200D03*
X111363Y-60200D03*
X110613Y-60200D03*
G54D28*
X66550Y-77175D03*
X66550Y-77925D03*
G54D29*
X105333Y-67000D03*
X106083Y-67000D03*
X105333Y-66000D03*
X106083Y-66000D03*
X105788Y-62000D03*
X105038Y-62000D03*
X82892Y-66500D03*
X83642Y-66500D03*
X90175Y-72500D03*
X89425Y-72500D03*
X56772Y-67000D03*
X56022Y-67000D03*
X106083Y-68000D03*
X105333Y-68000D03*
X109922Y-71000D03*
X109172Y-71000D03*
G54D30*
X114295Y-71500D03*
G54D31*
X113295Y-71500D03*
X112295Y-71500D03*
X111295Y-71500D03*
G54D30*
X92125Y-72500D03*
G54D31*
X92125Y-71500D03*
X92125Y-70500D03*
X92125Y-69500D03*
G54D30*
X67913Y-76500D03*
G54D31*
X67913Y-77500D03*
X67913Y-78500D03*
X67913Y-79500D03*
G54D30*
X105968Y-71700D03*
G54D31*
X104968Y-71700D03*
X105968Y-70700D03*
X104968Y-70700D03*
X105968Y-69700D03*
X104968Y-69700D03*
G54D30*
X81791Y-74000D03*
G54D31*
X80791Y-74000D03*
X81791Y-73000D03*
X80791Y-73000D03*
X81791Y-72000D03*
X80791Y-72000D03*
G54D30*
X68503Y-83000D03*
G54D31*
X68503Y-84000D03*
X68503Y-85000D03*
G54D30*
X82677Y-83000D03*
G54D31*
X82677Y-84000D03*
X82677Y-85000D03*
G54D30*
X83858Y-83000D03*
G54D31*
X83858Y-84000D03*
X83858Y-85000D03*
G54D30*
X67322Y-83000D03*
G54D31*
X67322Y-84000D03*
X67322Y-85000D03*
G54D30*
X62598Y-83000D03*
G54D31*
X62598Y-84000D03*
X62598Y-85000D03*
G54D30*
X69685Y-83000D03*
G54D31*
X69685Y-84000D03*
X69685Y-85000D03*
G54D30*
X70866Y-83000D03*
G54D31*
X70866Y-84000D03*
X70866Y-85000D03*
G54D30*
X85039Y-83000D03*
G54D31*
X85039Y-84000D03*
X85039Y-85000D03*
G54D30*
X86220Y-83000D03*
G54D31*
X86220Y-84000D03*
X86220Y-85000D03*
G54D30*
X87401Y-83000D03*
G54D31*
X87401Y-84000D03*
X87401Y-85000D03*
G54D30*
X72047Y-83000D03*
G54D31*
X72047Y-84000D03*
X72047Y-85000D03*
G54D30*
X88582Y-83000D03*
G54D31*
X88582Y-84000D03*
X88582Y-85000D03*
G54D30*
X79133Y-83000D03*
G54D31*
X79133Y-84000D03*
X79133Y-85000D03*
G54D30*
X75590Y-83000D03*
G54D31*
X75590Y-84000D03*
X75590Y-85000D03*
G54D30*
X74409Y-83000D03*
G54D31*
X74409Y-84000D03*
X74409Y-85000D03*
G54D30*
X73228Y-83000D03*
G54D31*
X73228Y-84000D03*
X73228Y-85000D03*
G54D30*
X53149Y-83000D03*
G54D31*
X53149Y-84000D03*
X53149Y-85000D03*
G54D30*
X54330Y-83000D03*
G54D31*
X54330Y-84000D03*
X54330Y-85000D03*
G54D30*
X55511Y-83000D03*
G54D31*
X55511Y-84000D03*
X55511Y-85000D03*
G54D30*
X76771Y-83000D03*
G54D31*
X76771Y-84000D03*
X76771Y-85000D03*
G54D30*
X51968Y-83000D03*
G54D31*
X51968Y-84000D03*
X51968Y-85000D03*
G54D30*
X77952Y-83000D03*
G54D31*
X77952Y-84000D03*
X77952Y-85000D03*
G54D30*
X66141Y-83000D03*
G54D31*
X66141Y-84000D03*
X66141Y-85000D03*
G54D30*
X80314Y-83000D03*
G54D31*
X80314Y-84000D03*
X80314Y-85000D03*
G54D30*
X81496Y-83000D03*
G54D31*
X81496Y-84000D03*
X81496Y-85000D03*
G54D30*
X56692Y-83000D03*
G54D31*
X56692Y-84000D03*
X56692Y-85000D03*
G54D30*
X57874Y-83000D03*
G54D31*
X57874Y-84000D03*
X57874Y-85000D03*
G54D30*
X59055Y-83000D03*
G54D31*
X59055Y-84000D03*
X59055Y-85000D03*
G54D30*
X60236Y-83000D03*
G54D31*
X60236Y-84000D03*
X60236Y-85000D03*
G54D30*
X61417Y-83000D03*
G54D31*
X61417Y-84000D03*
X61417Y-85000D03*
G54D30*
X63779Y-83000D03*
G54D31*
X63779Y-84000D03*
X63779Y-85000D03*
G54D30*
X64960Y-83000D03*
G54D31*
X64960Y-84000D03*
X64960Y-85000D03*
G54D30*
X119881Y-83000D03*
G54D31*
X119881Y-84000D03*
X119881Y-85000D03*
G54D30*
X116338Y-83000D03*
G54D31*
X116338Y-84000D03*
X116338Y-85000D03*
G54D30*
X115157Y-83000D03*
G54D31*
X115157Y-84000D03*
X115157Y-85000D03*
G54D30*
X113976Y-83000D03*
G54D31*
X113976Y-84000D03*
X113976Y-85000D03*
G54D30*
X112795Y-83000D03*
G54D31*
X112795Y-84000D03*
X112795Y-85000D03*
G54D30*
X111614Y-83000D03*
G54D31*
X111614Y-84000D03*
X111614Y-85000D03*
G54D30*
X110433Y-83000D03*
G54D31*
X110433Y-84000D03*
X110433Y-85000D03*
G54D30*
X118700Y-83000D03*
G54D31*
X118700Y-84000D03*
X118700Y-85000D03*
G54D30*
X97440Y-83000D03*
G54D31*
X97440Y-84000D03*
X97440Y-85000D03*
G54D30*
X121062Y-83000D03*
G54D31*
X121062Y-84000D03*
X121062Y-85000D03*
G54D30*
X122244Y-83000D03*
G54D31*
X122244Y-84000D03*
X122244Y-85000D03*
G54D30*
X123425Y-83000D03*
G54D31*
X123425Y-84000D03*
X123425Y-85000D03*
G54D30*
X124606Y-83000D03*
G54D31*
X124606Y-84000D03*
X124606Y-85000D03*
G54D30*
X125787Y-83000D03*
G54D31*
X125787Y-84000D03*
X125787Y-85000D03*
G54D30*
X126968Y-83000D03*
G54D31*
X126968Y-84000D03*
X126968Y-85000D03*
G54D30*
X98622Y-83000D03*
G54D31*
X98622Y-84000D03*
X98622Y-85000D03*
G54D30*
X96259Y-83000D03*
G54D31*
X96259Y-84000D03*
X96259Y-85000D03*
G54D30*
X117519Y-83000D03*
G54D31*
X117519Y-84000D03*
X117519Y-85000D03*
G54D30*
X95078Y-83000D03*
G54D31*
X95078Y-84000D03*
X95078Y-85000D03*
G54D30*
X93897Y-83000D03*
G54D31*
X93897Y-84000D03*
X93897Y-85000D03*
G54D30*
X92716Y-83000D03*
G54D31*
X92716Y-84000D03*
X92716Y-85000D03*
G54D30*
X91535Y-83000D03*
G54D31*
X91535Y-84000D03*
X91535Y-85000D03*
G54D30*
X90354Y-83000D03*
G54D31*
X90354Y-84000D03*
X90354Y-85000D03*
G54D30*
X99803Y-83000D03*
G54D31*
X99803Y-84000D03*
X99803Y-85000D03*
G54D30*
X100984Y-83000D03*
G54D31*
X100984Y-84000D03*
X100984Y-85000D03*
G54D30*
X102165Y-83000D03*
G54D31*
X102165Y-84000D03*
X102165Y-85000D03*
G54D30*
X103346Y-83000D03*
G54D31*
X103346Y-84000D03*
X103346Y-85000D03*
G54D30*
X104527Y-83000D03*
G54D31*
X104527Y-84000D03*
X104527Y-85000D03*
G54D30*
X105708Y-83000D03*
G54D31*
X105708Y-84000D03*
X105708Y-85000D03*
G54D30*
X106889Y-83000D03*
G54D31*
X106889Y-84000D03*
X106889Y-85000D03*
G54D30*
X108070Y-83000D03*
G54D31*
X108070Y-84000D03*
X108070Y-85000D03*
G54D30*
X105413Y-63500D03*
G54D31*
X105413Y-64500D03*
G54D30*
X81496Y-66000D03*
G54D31*
X81496Y-67000D03*
G54D32*
X115779Y-63700D03*
X117779Y-64200D03*
X115779Y-64700D03*
X117779Y-65200D03*
X115779Y-65700D03*
X117779Y-66200D03*
X115779Y-66700D03*
X117779Y-67200D03*
X115779Y-67700D03*
X117779Y-68200D03*
X115779Y-68700D03*
X117779Y-69200D03*
X115779Y-69700D03*
X117779Y-70200D03*
X115779Y-70700D03*
G54D33*
X105000Y-60500D03*
X105826Y-60500D03*
X83680Y-65000D03*
X82854Y-65000D03*
G54D34*
X108503Y-73500D03*
X107047Y-73500D03*
X85177Y-75500D03*
X83720Y-75500D03*
G54D35*
X60050Y-62011D03*
G54D36*
X60050Y-63388D03*
G54D37*
X60433Y-75000D03*
G54D38*
X59448Y-75000D03*
G54D39*
X125196Y-78500D03*
G54D40*
X125196Y-76500D03*
X125196Y-74500D03*
G54D41*
X56771Y-63500D03*
X54409Y-63500D03*
X55590Y-65350D03*
X56771Y-73500D03*
X54409Y-73500D03*
X55590Y-75350D03*
G54D28*
X109251Y-81375D03*
X109251Y-80625D03*
G54D39*
X125161Y-65200D03*
G54D40*
X125161Y-63200D03*
G54D42*
X121913Y-73535D03*
X121913Y-72865D03*
X118370Y-61535D03*
X118370Y-60865D03*
X119551Y-61535D03*
X119551Y-60865D03*
X118370Y-72865D03*
X118370Y-73535D03*
X120732Y-73535D03*
X120732Y-72865D03*
X121913Y-60865D03*
X121913Y-61535D03*
X120732Y-60865D03*
X120732Y-61535D03*
X119551Y-72865D03*
X119551Y-73535D03*
G54D39*
X125161Y-71200D03*
G54D40*
X125161Y-69200D03*
G54D30*
X94692Y-73500D03*
G54D31*
X93692Y-73500D03*
X94692Y-72500D03*
X93692Y-72500D03*
X94692Y-71500D03*
X93692Y-71500D03*
X94692Y-70500D03*
X93692Y-70500D03*
X94692Y-69500D03*
X93692Y-69500D03*
G54D30*
X109251Y-83000D03*
G54D31*
X109251Y-84000D03*
X109251Y-85000D03*
G54D24*
X76157Y-63000D03*
X76157Y-61000D03*
X79157Y-63000D03*
X79157Y-61000D03*
X98055Y-61000D03*
X98055Y-63000D03*
X95055Y-61000D03*
X95055Y-63000D03*
G54D43*
X65444Y-73226D03*
X66428Y-73226D03*
X67413Y-73226D03*
X68397Y-73226D03*
X69381Y-73226D03*
X70365Y-73226D03*
X71350Y-73226D03*
X72302Y-73226D03*
X72972Y-73226D03*
G54D44*
X73869Y-73136D03*
G54D45*
X63287Y-71270D03*
X63287Y-65187D03*
X74948Y-71270D03*
G54D46*
X74822Y-69144D03*
G54D47*
X74842Y-65337D03*
G54D48*
X64330Y-63632D03*
G54D49*
X73858Y-63632D03*
G54D50*
X56000Y-69000D03*
X126000Y-61000D03*
X88000Y-80000D03*
G54D51*
X86122Y-64755D03*
X87106Y-64755D03*
X88090Y-64755D03*
G54D52*
X85216Y-62000D03*
X88996Y-62000D03*
M02*
