G04 (created by PCBNEW (2013-may-18)-stable) date Tue 18 Mar 2014 20:31:26 GMT*
%MOIN*%
G04 Gerber Fmt 3.4, Leading zero omitted, Abs format*
%FSLAX34Y34*%
G01*
G70*
G90*
G04 APERTURE LIST*
%ADD10C,0.00590551*%
%ADD11C,0.07*%
%ADD12R,0.07X0.07*%
%ADD13R,0.35X0.35*%
%ADD14R,0.016X0.06*%
%ADD15R,0.06X0.016*%
%ADD16R,0.0906X0.0197*%
%ADD17R,0.0984X0.0787*%
%ADD18C,0.0354*%
%ADD19R,0.0315X0.0394*%
%ADD20R,0.0394X0.0315*%
%ADD21C,0.023622*%
%ADD22R,0.023622X0.023622*%
%ADD23R,0.0579X0.0165*%
%ADD24C,0.055*%
%ADD25R,0.05X0.016*%
%ADD26R,0.0335X0.0335*%
%ADD27R,0.0551X0.0236*%
%ADD28R,0.055X0.035*%
%ADD29R,0.035X0.055*%
%ADD30R,0.06X0.06*%
%ADD31C,0.06*%
%ADD32O,0.0944882X0.0629921*%
%ADD33R,0.0472X0.0472*%
%ADD34R,0.0669291X0.0944882*%
%ADD35R,0.0708661X0.0708661*%
%ADD36C,0.0708661*%
%ADD37R,0.0629921X0.0629921*%
%ADD38C,0.0629921*%
%ADD39R,0.1X0.1*%
%ADD40C,0.1*%
%ADD41R,0.1378X0.1378*%
%ADD42R,0.0315X0.0236*%
%ADD43R,0.0413X0.0614*%
%ADD44R,0.0531X0.0433*%
%ADD45R,0.0748X0.0748*%
%ADD46R,0.063X0.0433*%
%ADD47R,0.063X0.063*%
%ADD48C,0.0512*%
%ADD49C,0.0709*%
%ADD50C,0.16*%
%ADD51O,0.0590551X0.0787402*%
%ADD52C,0.137795*%
%ADD53C,0.035*%
%ADD54C,0.01*%
%ADD55C,0.05*%
G04 APERTURE END LIST*
G54D10*
G54D11*
X102870Y-68000D03*
G54D12*
X100870Y-68000D03*
G54D11*
X101870Y-68000D03*
G54D13*
X101870Y-61500D03*
G54D14*
X110397Y-64950D03*
X110082Y-64950D03*
X109767Y-64950D03*
X109452Y-64950D03*
X109137Y-64950D03*
X108822Y-64950D03*
X110712Y-64950D03*
X111027Y-64950D03*
X111342Y-64950D03*
X111657Y-64950D03*
X111972Y-64950D03*
X110397Y-69450D03*
X110082Y-69450D03*
X109767Y-69450D03*
X109452Y-69450D03*
X109137Y-69450D03*
X108822Y-69450D03*
X110712Y-69450D03*
X111027Y-69450D03*
X111342Y-69450D03*
X111657Y-69450D03*
X111972Y-69450D03*
G54D15*
X108147Y-67200D03*
X112647Y-67200D03*
X108147Y-67515D03*
X112647Y-67515D03*
X112647Y-67830D03*
X108147Y-67830D03*
X108147Y-68145D03*
X112647Y-68145D03*
X112647Y-68460D03*
X108147Y-68460D03*
X108147Y-68775D03*
X112647Y-68775D03*
X112647Y-66885D03*
X108147Y-66885D03*
X108147Y-66570D03*
X112647Y-66570D03*
X112647Y-66255D03*
X108147Y-66255D03*
X108147Y-65940D03*
X112647Y-65940D03*
X112647Y-65625D03*
X108147Y-65625D03*
G54D16*
X54212Y-67370D03*
X54212Y-67685D03*
X54212Y-68000D03*
X54212Y-68315D03*
X54212Y-68630D03*
G54D17*
X54173Y-66248D03*
X52008Y-66248D03*
X54173Y-69752D03*
X52008Y-69752D03*
G54D18*
X53189Y-67134D03*
X53189Y-68866D03*
G54D16*
X54212Y-77370D03*
X54212Y-77685D03*
X54212Y-78000D03*
X54212Y-78315D03*
X54212Y-78630D03*
G54D17*
X54173Y-76248D03*
X52008Y-76248D03*
X54173Y-79752D03*
X52008Y-79752D03*
G54D18*
X53189Y-77134D03*
X53189Y-78866D03*
G54D19*
X58759Y-72067D03*
X59134Y-72933D03*
X58384Y-72933D03*
G54D20*
X103188Y-71500D03*
X102322Y-71875D03*
X102322Y-71125D03*
X103188Y-73500D03*
X102322Y-73875D03*
X102322Y-73125D03*
G54D21*
X96850Y-68303D03*
X96850Y-68775D03*
X96850Y-69720D03*
X96850Y-70192D03*
X96850Y-70665D03*
X96850Y-71137D03*
X96850Y-71610D03*
X96850Y-72082D03*
X96850Y-72555D03*
X96850Y-73027D03*
X96850Y-73500D03*
X97322Y-73500D03*
X97322Y-73027D03*
X97322Y-72555D03*
X97322Y-72082D03*
X97322Y-71610D03*
X97322Y-71137D03*
X97322Y-70665D03*
X97322Y-70192D03*
X97322Y-69720D03*
X97795Y-69720D03*
X97795Y-70192D03*
X97795Y-70665D03*
X97795Y-71137D03*
X97795Y-71610D03*
X97795Y-72082D03*
X97795Y-72555D03*
X97795Y-73027D03*
X97795Y-73500D03*
X98267Y-73500D03*
X98267Y-73027D03*
X98267Y-72555D03*
X98267Y-72082D03*
X98267Y-71610D03*
X98267Y-71137D03*
X98267Y-70665D03*
X98267Y-70192D03*
X98267Y-69720D03*
X98740Y-69720D03*
X98740Y-70192D03*
X98740Y-70665D03*
X98740Y-71137D03*
X98740Y-71610D03*
X98740Y-72082D03*
X98740Y-72555D03*
X98740Y-73027D03*
X98740Y-73500D03*
G54D22*
X99212Y-73500D03*
G54D21*
X99212Y-73027D03*
X99212Y-72555D03*
X99212Y-72082D03*
X99212Y-71610D03*
X99212Y-71137D03*
X99212Y-70665D03*
X99212Y-70192D03*
X99212Y-69720D03*
X99212Y-68775D03*
X99212Y-68303D03*
G54D23*
X117008Y-76872D03*
X117008Y-77128D03*
X117008Y-77384D03*
X117008Y-77640D03*
X119210Y-76108D03*
X117008Y-76104D03*
X117008Y-76360D03*
X117008Y-76616D03*
X119212Y-77896D03*
X119212Y-77640D03*
X119212Y-77384D03*
X119212Y-77128D03*
X119212Y-76872D03*
X119212Y-76616D03*
X117008Y-77896D03*
X119210Y-76360D03*
X117008Y-75848D03*
X117008Y-78152D03*
X119212Y-78152D03*
X119212Y-75848D03*
X117008Y-75593D03*
X117008Y-78407D03*
X119212Y-78407D03*
X119212Y-75593D03*
X117008Y-75337D03*
X117008Y-78663D03*
X119212Y-78663D03*
X119212Y-75337D03*
X98110Y-76872D03*
X98110Y-77128D03*
X98110Y-77384D03*
X98110Y-77640D03*
X100312Y-76108D03*
X98110Y-76104D03*
X98110Y-76360D03*
X98110Y-76616D03*
X100314Y-77896D03*
X100314Y-77640D03*
X100314Y-77384D03*
X100314Y-77128D03*
X100314Y-76872D03*
X100314Y-76616D03*
X98110Y-77896D03*
X100312Y-76360D03*
X98110Y-75848D03*
X98110Y-78152D03*
X100314Y-78152D03*
X100314Y-75848D03*
X98110Y-75593D03*
X98110Y-78407D03*
X100314Y-78407D03*
X100314Y-75593D03*
X98110Y-75337D03*
X98110Y-78663D03*
X100314Y-78663D03*
X100314Y-75337D03*
G54D14*
X86515Y-67250D03*
X86200Y-67250D03*
X85885Y-67250D03*
X85570Y-67250D03*
X85255Y-67250D03*
X84940Y-67250D03*
X86830Y-67250D03*
X87145Y-67250D03*
X87460Y-67250D03*
X87775Y-67250D03*
X88090Y-67250D03*
X86515Y-71750D03*
X86200Y-71750D03*
X85885Y-71750D03*
X85570Y-71750D03*
X85255Y-71750D03*
X84940Y-71750D03*
X86830Y-71750D03*
X87145Y-71750D03*
X87460Y-71750D03*
X87775Y-71750D03*
X88090Y-71750D03*
G54D15*
X84265Y-69500D03*
X88765Y-69500D03*
X84265Y-69815D03*
X88765Y-69815D03*
X88765Y-70130D03*
X84265Y-70130D03*
X84265Y-70445D03*
X88765Y-70445D03*
X88765Y-70760D03*
X84265Y-70760D03*
X84265Y-71075D03*
X88765Y-71075D03*
X88765Y-69185D03*
X84265Y-69185D03*
X84265Y-68870D03*
X88765Y-68870D03*
X88765Y-68555D03*
X84265Y-68555D03*
X84265Y-68240D03*
X88765Y-68240D03*
X88765Y-67925D03*
X84265Y-67925D03*
G54D24*
X93330Y-61000D03*
X93330Y-63000D03*
X90330Y-61000D03*
X90330Y-63000D03*
X80881Y-63000D03*
X80881Y-61000D03*
X83881Y-63000D03*
X83881Y-61000D03*
G54D25*
X81124Y-80650D03*
X81124Y-80400D03*
X81124Y-80140D03*
X81124Y-79880D03*
X81124Y-79630D03*
X81124Y-79370D03*
X81124Y-79110D03*
X81124Y-78860D03*
X81124Y-78600D03*
X81124Y-78350D03*
X81124Y-78090D03*
X81124Y-77830D03*
X81124Y-77580D03*
X81124Y-77320D03*
X78324Y-77320D03*
X78324Y-77580D03*
X78324Y-77820D03*
X78324Y-78090D03*
X78324Y-78350D03*
X78324Y-78600D03*
X78324Y-78860D03*
X78324Y-79110D03*
X78324Y-79370D03*
X78324Y-79630D03*
X78324Y-79880D03*
X78324Y-80140D03*
X78324Y-80400D03*
X78324Y-80650D03*
X62226Y-80650D03*
X62226Y-80400D03*
X62226Y-80140D03*
X62226Y-79880D03*
X62226Y-79630D03*
X62226Y-79370D03*
X62226Y-79110D03*
X62226Y-78860D03*
X62226Y-78600D03*
X62226Y-78350D03*
X62226Y-78090D03*
X62226Y-77830D03*
X62226Y-77580D03*
X62226Y-77320D03*
X59426Y-77320D03*
X59426Y-77580D03*
X59426Y-77820D03*
X59426Y-78090D03*
X59426Y-78350D03*
X59426Y-78600D03*
X59426Y-78860D03*
X59426Y-79110D03*
X59426Y-79370D03*
X59426Y-79630D03*
X59426Y-79880D03*
X59426Y-80140D03*
X59426Y-80400D03*
X59426Y-80650D03*
G54D26*
X113940Y-63859D03*
X113940Y-62541D03*
G54D27*
X109938Y-63450D03*
X112038Y-63450D03*
X109938Y-62950D03*
X109938Y-62450D03*
X109938Y-61950D03*
X112038Y-62950D03*
X112038Y-62450D03*
X112038Y-61950D03*
G54D28*
X113976Y-81375D03*
X113976Y-80625D03*
X117519Y-81375D03*
X117519Y-80625D03*
X126968Y-80625D03*
X126968Y-81375D03*
X125787Y-80625D03*
X125787Y-81375D03*
X116338Y-81375D03*
X116338Y-80625D03*
X115157Y-81375D03*
X115157Y-80625D03*
X118700Y-80625D03*
X118700Y-81375D03*
X112795Y-81375D03*
X112795Y-80625D03*
X111614Y-81375D03*
X111614Y-80625D03*
X110433Y-81375D03*
X110433Y-80625D03*
X122834Y-75875D03*
X122834Y-75125D03*
X93897Y-81375D03*
X93897Y-80625D03*
X121653Y-75875D03*
X121653Y-75125D03*
X111614Y-76625D03*
X111614Y-77375D03*
X110728Y-76625D03*
X110728Y-77375D03*
X109842Y-76625D03*
X109842Y-77375D03*
X108956Y-76625D03*
X108956Y-77375D03*
X108070Y-76625D03*
X108070Y-77375D03*
X95078Y-81375D03*
X95078Y-80625D03*
X58169Y-77875D03*
X58169Y-77125D03*
X90354Y-81375D03*
X90354Y-80625D03*
X96259Y-81375D03*
X96259Y-80625D03*
X97440Y-81375D03*
X97440Y-80625D03*
X98622Y-81375D03*
X98622Y-80625D03*
X108070Y-80625D03*
X108070Y-81375D03*
X106889Y-80625D03*
X106889Y-81375D03*
X105708Y-80625D03*
X105708Y-81375D03*
X104527Y-80625D03*
X104527Y-81375D03*
X92716Y-81375D03*
X92716Y-80625D03*
X103346Y-80625D03*
X103346Y-81375D03*
X102165Y-80625D03*
X102165Y-81375D03*
X100984Y-80625D03*
X100984Y-81375D03*
X99803Y-80625D03*
X99803Y-81375D03*
X70866Y-79625D03*
X70866Y-80375D03*
X69685Y-79625D03*
X69685Y-80375D03*
X124606Y-80625D03*
X124606Y-81375D03*
X105708Y-76625D03*
X105708Y-77375D03*
X106594Y-76625D03*
X106594Y-77375D03*
X91535Y-77625D03*
X91535Y-78375D03*
X90354Y-77625D03*
X90354Y-78375D03*
X89173Y-77625D03*
X89173Y-78375D03*
X87992Y-77625D03*
X87992Y-78375D03*
X86811Y-77625D03*
X86811Y-78375D03*
X100984Y-73125D03*
X100984Y-73875D03*
X100984Y-71125D03*
X100984Y-71875D03*
X61712Y-65125D03*
X61712Y-65875D03*
X91535Y-81375D03*
X91535Y-80625D03*
X119881Y-80625D03*
X119881Y-81375D03*
X121062Y-80625D03*
X121062Y-81375D03*
X122244Y-80625D03*
X122244Y-81375D03*
X123425Y-80625D03*
X123425Y-81375D03*
G54D29*
X67107Y-74500D03*
X66357Y-74500D03*
X109922Y-72000D03*
X109172Y-72000D03*
G54D28*
X117188Y-72825D03*
X117188Y-73575D03*
X116007Y-72825D03*
X116007Y-73575D03*
X114826Y-72825D03*
X114826Y-73575D03*
X113645Y-72825D03*
X113645Y-73575D03*
X117188Y-61575D03*
X117188Y-60825D03*
X116007Y-61575D03*
X116007Y-60825D03*
X113645Y-61575D03*
X113645Y-60825D03*
G54D29*
X107365Y-63700D03*
X108115Y-63700D03*
G54D28*
X114236Y-68325D03*
X114236Y-69075D03*
G54D29*
X56477Y-77000D03*
X55727Y-77000D03*
X70491Y-74500D03*
X71241Y-74500D03*
X68424Y-74500D03*
X69174Y-74500D03*
G54D28*
X114826Y-61575D03*
X114826Y-60825D03*
G54D29*
X76691Y-72500D03*
X77441Y-72500D03*
X76691Y-73500D03*
X77441Y-73500D03*
X76691Y-74500D03*
X77441Y-74500D03*
X85709Y-66000D03*
X84959Y-66000D03*
X81121Y-68500D03*
X81871Y-68500D03*
X81121Y-69500D03*
X81871Y-69500D03*
X81871Y-70500D03*
X81121Y-70500D03*
X86004Y-73000D03*
X85254Y-73000D03*
X86004Y-74000D03*
X85254Y-74000D03*
G54D28*
X65300Y-76675D03*
X65300Y-77425D03*
G54D29*
X107365Y-60700D03*
X108115Y-60700D03*
X107365Y-62200D03*
X108115Y-62200D03*
X111363Y-60200D03*
X110613Y-60200D03*
G54D28*
X66550Y-77175D03*
X66550Y-77925D03*
G54D29*
X105333Y-67000D03*
X106083Y-67000D03*
X105333Y-66000D03*
X106083Y-66000D03*
X105788Y-62000D03*
X105038Y-62000D03*
X82892Y-66500D03*
X83642Y-66500D03*
X90175Y-72500D03*
X89425Y-72500D03*
X56772Y-67000D03*
X56022Y-67000D03*
X106083Y-68000D03*
X105333Y-68000D03*
X109922Y-71000D03*
X109172Y-71000D03*
G54D30*
X114295Y-71500D03*
G54D31*
X113295Y-71500D03*
X112295Y-71500D03*
X111295Y-71500D03*
G54D30*
X92125Y-72500D03*
G54D31*
X92125Y-71500D03*
X92125Y-70500D03*
X92125Y-69500D03*
G54D30*
X67913Y-76500D03*
G54D31*
X67913Y-77500D03*
X67913Y-78500D03*
X67913Y-79500D03*
G54D30*
X105968Y-71700D03*
G54D31*
X104968Y-71700D03*
X105968Y-70700D03*
X104968Y-70700D03*
X105968Y-69700D03*
X104968Y-69700D03*
G54D30*
X81791Y-74000D03*
G54D31*
X80791Y-74000D03*
X81791Y-73000D03*
X80791Y-73000D03*
X81791Y-72000D03*
X80791Y-72000D03*
G54D30*
X68503Y-83000D03*
G54D31*
X68503Y-84000D03*
X68503Y-85000D03*
G54D30*
X82677Y-83000D03*
G54D31*
X82677Y-84000D03*
X82677Y-85000D03*
G54D30*
X83858Y-83000D03*
G54D31*
X83858Y-84000D03*
X83858Y-85000D03*
G54D30*
X67322Y-83000D03*
G54D31*
X67322Y-84000D03*
X67322Y-85000D03*
G54D30*
X62598Y-83000D03*
G54D31*
X62598Y-84000D03*
X62598Y-85000D03*
G54D30*
X69685Y-83000D03*
G54D31*
X69685Y-84000D03*
X69685Y-85000D03*
G54D30*
X70866Y-83000D03*
G54D31*
X70866Y-84000D03*
X70866Y-85000D03*
G54D30*
X85039Y-83000D03*
G54D31*
X85039Y-84000D03*
X85039Y-85000D03*
G54D30*
X86220Y-83000D03*
G54D31*
X86220Y-84000D03*
X86220Y-85000D03*
G54D30*
X87401Y-83000D03*
G54D31*
X87401Y-84000D03*
X87401Y-85000D03*
G54D30*
X72047Y-83000D03*
G54D31*
X72047Y-84000D03*
X72047Y-85000D03*
G54D30*
X88582Y-83000D03*
G54D31*
X88582Y-84000D03*
X88582Y-85000D03*
G54D30*
X79133Y-83000D03*
G54D31*
X79133Y-84000D03*
X79133Y-85000D03*
G54D30*
X75590Y-83000D03*
G54D31*
X75590Y-84000D03*
X75590Y-85000D03*
G54D30*
X74409Y-83000D03*
G54D31*
X74409Y-84000D03*
X74409Y-85000D03*
G54D30*
X73228Y-83000D03*
G54D31*
X73228Y-84000D03*
X73228Y-85000D03*
G54D30*
X53149Y-83000D03*
G54D31*
X53149Y-84000D03*
X53149Y-85000D03*
G54D30*
X54330Y-83000D03*
G54D31*
X54330Y-84000D03*
X54330Y-85000D03*
G54D30*
X55511Y-83000D03*
G54D31*
X55511Y-84000D03*
X55511Y-85000D03*
G54D30*
X76771Y-83000D03*
G54D31*
X76771Y-84000D03*
X76771Y-85000D03*
G54D30*
X51968Y-83000D03*
G54D31*
X51968Y-84000D03*
X51968Y-85000D03*
G54D30*
X77952Y-83000D03*
G54D31*
X77952Y-84000D03*
X77952Y-85000D03*
G54D30*
X66141Y-83000D03*
G54D31*
X66141Y-84000D03*
X66141Y-85000D03*
G54D30*
X80314Y-83000D03*
G54D31*
X80314Y-84000D03*
X80314Y-85000D03*
G54D30*
X81496Y-83000D03*
G54D31*
X81496Y-84000D03*
X81496Y-85000D03*
G54D30*
X56692Y-83000D03*
G54D31*
X56692Y-84000D03*
X56692Y-85000D03*
G54D30*
X57874Y-83000D03*
G54D31*
X57874Y-84000D03*
X57874Y-85000D03*
G54D30*
X59055Y-83000D03*
G54D31*
X59055Y-84000D03*
X59055Y-85000D03*
G54D30*
X60236Y-83000D03*
G54D31*
X60236Y-84000D03*
X60236Y-85000D03*
G54D30*
X61417Y-83000D03*
G54D31*
X61417Y-84000D03*
X61417Y-85000D03*
G54D30*
X63779Y-83000D03*
G54D31*
X63779Y-84000D03*
X63779Y-85000D03*
G54D30*
X64960Y-83000D03*
G54D31*
X64960Y-84000D03*
X64960Y-85000D03*
G54D30*
X119881Y-83000D03*
G54D31*
X119881Y-84000D03*
X119881Y-85000D03*
G54D30*
X116338Y-83000D03*
G54D31*
X116338Y-84000D03*
X116338Y-85000D03*
G54D30*
X115157Y-83000D03*
G54D31*
X115157Y-84000D03*
X115157Y-85000D03*
G54D30*
X113976Y-83000D03*
G54D31*
X113976Y-84000D03*
X113976Y-85000D03*
G54D30*
X112795Y-83000D03*
G54D31*
X112795Y-84000D03*
X112795Y-85000D03*
G54D30*
X111614Y-83000D03*
G54D31*
X111614Y-84000D03*
X111614Y-85000D03*
G54D30*
X110433Y-83000D03*
G54D31*
X110433Y-84000D03*
X110433Y-85000D03*
G54D30*
X118700Y-83000D03*
G54D31*
X118700Y-84000D03*
X118700Y-85000D03*
G54D30*
X97440Y-83000D03*
G54D31*
X97440Y-84000D03*
X97440Y-85000D03*
G54D30*
X121062Y-83000D03*
G54D31*
X121062Y-84000D03*
X121062Y-85000D03*
G54D30*
X122244Y-83000D03*
G54D31*
X122244Y-84000D03*
X122244Y-85000D03*
G54D30*
X123425Y-83000D03*
G54D31*
X123425Y-84000D03*
X123425Y-85000D03*
G54D30*
X124606Y-83000D03*
G54D31*
X124606Y-84000D03*
X124606Y-85000D03*
G54D30*
X125787Y-83000D03*
G54D31*
X125787Y-84000D03*
X125787Y-85000D03*
G54D30*
X126968Y-83000D03*
G54D31*
X126968Y-84000D03*
X126968Y-85000D03*
G54D30*
X98622Y-83000D03*
G54D31*
X98622Y-84000D03*
X98622Y-85000D03*
G54D30*
X96259Y-83000D03*
G54D31*
X96259Y-84000D03*
X96259Y-85000D03*
G54D30*
X117519Y-83000D03*
G54D31*
X117519Y-84000D03*
X117519Y-85000D03*
G54D30*
X95078Y-83000D03*
G54D31*
X95078Y-84000D03*
X95078Y-85000D03*
G54D30*
X93897Y-83000D03*
G54D31*
X93897Y-84000D03*
X93897Y-85000D03*
G54D30*
X92716Y-83000D03*
G54D31*
X92716Y-84000D03*
X92716Y-85000D03*
G54D30*
X91535Y-83000D03*
G54D31*
X91535Y-84000D03*
X91535Y-85000D03*
G54D30*
X90354Y-83000D03*
G54D31*
X90354Y-84000D03*
X90354Y-85000D03*
G54D30*
X99803Y-83000D03*
G54D31*
X99803Y-84000D03*
X99803Y-85000D03*
G54D30*
X100984Y-83000D03*
G54D31*
X100984Y-84000D03*
X100984Y-85000D03*
G54D30*
X102165Y-83000D03*
G54D31*
X102165Y-84000D03*
X102165Y-85000D03*
G54D30*
X103346Y-83000D03*
G54D31*
X103346Y-84000D03*
X103346Y-85000D03*
G54D30*
X104527Y-83000D03*
G54D31*
X104527Y-84000D03*
X104527Y-85000D03*
G54D30*
X105708Y-83000D03*
G54D31*
X105708Y-84000D03*
X105708Y-85000D03*
G54D30*
X106889Y-83000D03*
G54D31*
X106889Y-84000D03*
X106889Y-85000D03*
G54D30*
X108070Y-83000D03*
G54D31*
X108070Y-84000D03*
X108070Y-85000D03*
G54D30*
X105413Y-63500D03*
G54D31*
X105413Y-64500D03*
G54D30*
X81496Y-66000D03*
G54D31*
X81496Y-67000D03*
G54D32*
X115779Y-63700D03*
X117779Y-64200D03*
X115779Y-64700D03*
X117779Y-65200D03*
X115779Y-65700D03*
X117779Y-66200D03*
X115779Y-66700D03*
X117779Y-67200D03*
X115779Y-67700D03*
X117779Y-68200D03*
X115779Y-68700D03*
X117779Y-69200D03*
X115779Y-69700D03*
X117779Y-70200D03*
X115779Y-70700D03*
G54D33*
X105000Y-60500D03*
X105826Y-60500D03*
X83680Y-65000D03*
X82854Y-65000D03*
G54D34*
X108503Y-73500D03*
X107047Y-73500D03*
X85177Y-75500D03*
X83720Y-75500D03*
G54D35*
X60050Y-62011D03*
G54D36*
X60050Y-63388D03*
G54D37*
X60433Y-75000D03*
G54D38*
X59448Y-75000D03*
G54D39*
X125196Y-78500D03*
G54D40*
X125196Y-76500D03*
X125196Y-74500D03*
G54D41*
X56771Y-63500D03*
X54409Y-63500D03*
X55590Y-65350D03*
X56771Y-73500D03*
X54409Y-73500D03*
X55590Y-75350D03*
G54D28*
X109251Y-81375D03*
X109251Y-80625D03*
G54D39*
X125161Y-65200D03*
G54D40*
X125161Y-63200D03*
G54D42*
X121913Y-73535D03*
X121913Y-72865D03*
X118370Y-61535D03*
X118370Y-60865D03*
X119551Y-61535D03*
X119551Y-60865D03*
X118370Y-72865D03*
X118370Y-73535D03*
X120732Y-73535D03*
X120732Y-72865D03*
X121913Y-60865D03*
X121913Y-61535D03*
X120732Y-60865D03*
X120732Y-61535D03*
X119551Y-72865D03*
X119551Y-73535D03*
G54D39*
X125161Y-71200D03*
G54D40*
X125161Y-69200D03*
G54D30*
X94692Y-73500D03*
G54D31*
X93692Y-73500D03*
X94692Y-72500D03*
X93692Y-72500D03*
X94692Y-71500D03*
X93692Y-71500D03*
X94692Y-70500D03*
X93692Y-70500D03*
X94692Y-69500D03*
X93692Y-69500D03*
G54D30*
X109251Y-83000D03*
G54D31*
X109251Y-84000D03*
X109251Y-85000D03*
G54D24*
X76157Y-63000D03*
X76157Y-61000D03*
X79157Y-63000D03*
X79157Y-61000D03*
X98055Y-61000D03*
X98055Y-63000D03*
X95055Y-61000D03*
X95055Y-63000D03*
G54D43*
X65444Y-73226D03*
X66428Y-73226D03*
X67413Y-73226D03*
X68397Y-73226D03*
X69381Y-73226D03*
X70365Y-73226D03*
X71350Y-73226D03*
X72302Y-73226D03*
X72972Y-73226D03*
G54D44*
X73869Y-73136D03*
G54D45*
X63287Y-71270D03*
X63287Y-65187D03*
X74948Y-71270D03*
G54D46*
X74822Y-69144D03*
G54D47*
X74842Y-65337D03*
G54D48*
X64330Y-63632D03*
G54D49*
X73858Y-63632D03*
G54D50*
X56000Y-69000D03*
X126000Y-61000D03*
X88000Y-80000D03*
G54D51*
X86122Y-64755D03*
X87106Y-64755D03*
X88090Y-64755D03*
G54D52*
X85216Y-62000D03*
X88996Y-62000D03*
G54D53*
X81750Y-71250D03*
X107350Y-77000D03*
X110585Y-73900D03*
X120500Y-75700D03*
X90100Y-65400D03*
X104750Y-65400D03*
X72300Y-74000D03*
X78250Y-73500D03*
X88300Y-75600D03*
X87550Y-75000D03*
X111335Y-73900D03*
X120450Y-74950D03*
X79200Y-71500D03*
X78250Y-72500D03*
X89550Y-69500D03*
X78300Y-74500D03*
X88350Y-73450D03*
X58100Y-78450D03*
X87550Y-73650D03*
X77550Y-78450D03*
X89800Y-70450D03*
X84300Y-65800D03*
X112712Y-73574D03*
X112409Y-60826D03*
X100240Y-70250D03*
X104700Y-67000D03*
X98150Y-66600D03*
X104700Y-66050D03*
X98100Y-65950D03*
X126342Y-67200D03*
X107950Y-69750D03*
X98400Y-64500D03*
X97795Y-73027D03*
X100250Y-73900D03*
X97795Y-72555D03*
X100200Y-73050D03*
X99212Y-72555D03*
X97322Y-73027D03*
X97322Y-73500D03*
X97322Y-71137D03*
G54D54*
X69381Y-73226D02*
X69381Y-73168D01*
X81600Y-71100D02*
X81750Y-71250D01*
X80350Y-71100D02*
X81600Y-71100D01*
X79850Y-70600D02*
X80350Y-71100D01*
X71950Y-70600D02*
X79850Y-70600D01*
X69381Y-73168D02*
X71950Y-70600D01*
X81871Y-70500D02*
X81871Y-71128D01*
X81871Y-71128D02*
X81750Y-71250D01*
X84265Y-69500D02*
X83677Y-69500D01*
X82677Y-70500D02*
X81871Y-70500D01*
X83677Y-69500D02*
X82677Y-70500D01*
X102322Y-73125D02*
X102322Y-73132D01*
X94492Y-74300D02*
X93692Y-73500D01*
X102590Y-74300D02*
X94492Y-74300D01*
X102740Y-74150D02*
X102590Y-74300D01*
X102740Y-73550D02*
X102740Y-74150D01*
X102322Y-73132D02*
X102740Y-73550D01*
X102322Y-71125D02*
X102415Y-71125D01*
X102740Y-72707D02*
X102322Y-73125D01*
X102740Y-71450D02*
X102740Y-72707D01*
X102415Y-71125D02*
X102740Y-71450D01*
X100984Y-73125D02*
X102322Y-73125D01*
X100984Y-71125D02*
X102322Y-71125D01*
X99212Y-71137D02*
X100833Y-71137D01*
X100833Y-71137D02*
X100846Y-71125D01*
X99212Y-71610D02*
X99212Y-72082D01*
X99212Y-71137D02*
X99212Y-71610D01*
X93692Y-73500D02*
X93125Y-73500D01*
X93125Y-73500D02*
X92125Y-72500D01*
X81496Y-66000D02*
X81496Y-64803D01*
X82250Y-64050D02*
X86100Y-64050D01*
X81496Y-64803D02*
X82250Y-64050D01*
X85709Y-66000D02*
X85709Y-65509D01*
X85709Y-65509D02*
X85250Y-65050D01*
X85250Y-65050D02*
X85250Y-64600D01*
X85250Y-64600D02*
X85800Y-64050D01*
X85800Y-64050D02*
X86100Y-64050D01*
X87384Y-64050D02*
X88090Y-64755D01*
X86100Y-64050D02*
X87384Y-64050D01*
X88090Y-67250D02*
X88090Y-64756D01*
X88090Y-64756D02*
X88090Y-64755D01*
X90175Y-72500D02*
X90175Y-69825D01*
X102270Y-68600D02*
X102870Y-68000D01*
X100450Y-68600D02*
X102270Y-68600D01*
X100250Y-68400D02*
X100450Y-68600D01*
X100250Y-67550D02*
X100250Y-68400D01*
X99950Y-67250D02*
X100250Y-67550D01*
X92750Y-67250D02*
X99950Y-67250D01*
X90175Y-69825D02*
X92750Y-67250D01*
X102870Y-68000D02*
X102870Y-69970D01*
X102870Y-69970D02*
X104600Y-71700D01*
X104600Y-71700D02*
X104968Y-71700D01*
X114295Y-71500D02*
X114300Y-71500D01*
X114700Y-71100D02*
X114700Y-71095D01*
X114300Y-71500D02*
X114700Y-71100D01*
X81496Y-66000D02*
X82392Y-66000D01*
X82392Y-66000D02*
X82892Y-66500D01*
X67913Y-76500D02*
X67225Y-76500D01*
X67225Y-76500D02*
X66550Y-77175D01*
X67913Y-76500D02*
X65475Y-76500D01*
X65475Y-76500D02*
X65300Y-76675D01*
X114295Y-71500D02*
X114050Y-71500D01*
X112100Y-74649D02*
X112100Y-74600D01*
X112100Y-73450D02*
X112100Y-74649D01*
X114050Y-71500D02*
X112100Y-73450D01*
X88090Y-67250D02*
X88090Y-70540D01*
X88090Y-70540D02*
X88310Y-70760D01*
X88310Y-70760D02*
X88765Y-70760D01*
X84940Y-67250D02*
X84940Y-67935D01*
X85570Y-71120D02*
X85570Y-71750D01*
X85050Y-70600D02*
X85570Y-71120D01*
X85050Y-68044D02*
X85050Y-70600D01*
X84940Y-67935D02*
X85050Y-68044D01*
X82892Y-66500D02*
X82892Y-66829D01*
X82892Y-66829D02*
X83312Y-67250D01*
X83312Y-67250D02*
X84940Y-67250D01*
X85570Y-71750D02*
X85570Y-72229D01*
X80791Y-74391D02*
X80791Y-74000D01*
X81150Y-74750D02*
X80791Y-74391D01*
X82782Y-74750D02*
X81150Y-74750D01*
X84982Y-72550D02*
X82782Y-74750D01*
X85250Y-72550D02*
X84982Y-72550D01*
X85570Y-72229D02*
X85250Y-72550D01*
X88765Y-70760D02*
X89550Y-70760D01*
X89550Y-70760D02*
X89560Y-70760D01*
X89560Y-70760D02*
X89950Y-71150D01*
X89950Y-71150D02*
X90175Y-71375D01*
X90175Y-71375D02*
X90175Y-72500D01*
X114900Y-68800D02*
X114900Y-70894D01*
X114900Y-70894D02*
X114700Y-71095D01*
X100314Y-75337D02*
X108380Y-75337D01*
X108380Y-75337D02*
X109117Y-74600D01*
X109117Y-74600D02*
X112100Y-74600D01*
X118537Y-75337D02*
X119212Y-75337D01*
X112100Y-74600D02*
X117800Y-74600D01*
X117800Y-74600D02*
X118537Y-75337D01*
X108070Y-76625D02*
X107825Y-76625D01*
X107450Y-77000D02*
X107350Y-77000D01*
X107825Y-76625D02*
X107450Y-77000D01*
X105788Y-62000D02*
X107164Y-62000D01*
X107164Y-62000D02*
X107365Y-62200D01*
X105788Y-62000D02*
X105788Y-63125D01*
X105788Y-63125D02*
X105413Y-63500D01*
X119212Y-75337D02*
X118737Y-75337D01*
X109452Y-69450D02*
X109452Y-69833D01*
X109452Y-69833D02*
X109119Y-70166D01*
X109119Y-70166D02*
X108819Y-70166D01*
X108819Y-70166D02*
X106485Y-72500D01*
X106485Y-72500D02*
X105485Y-72500D01*
X105485Y-72500D02*
X104968Y-71982D01*
X104968Y-71982D02*
X104968Y-71700D01*
X109938Y-63450D02*
X109250Y-63450D01*
X108750Y-62950D02*
X107365Y-62950D01*
X109250Y-63450D02*
X108750Y-62950D01*
X108822Y-64950D02*
X107694Y-64950D01*
X107365Y-64621D02*
X107365Y-63700D01*
X107694Y-64950D02*
X107365Y-64621D01*
X107365Y-63700D02*
X107365Y-62950D01*
X107365Y-62950D02*
X107365Y-62200D01*
X107365Y-60700D02*
X107365Y-62200D01*
X111972Y-64950D02*
X111972Y-68273D01*
X112160Y-68460D02*
X112647Y-68460D01*
X111972Y-68273D02*
X112160Y-68460D01*
X116500Y-68421D02*
X115779Y-67700D01*
X116500Y-68950D02*
X116500Y-68421D01*
X116250Y-69200D02*
X116500Y-68950D01*
X115200Y-69200D02*
X116250Y-69200D01*
X114900Y-68900D02*
X115200Y-69200D01*
X114900Y-68650D02*
X114900Y-68800D01*
X114900Y-68800D02*
X114900Y-68900D01*
X114575Y-68325D02*
X114900Y-68650D01*
X114236Y-68325D02*
X114575Y-68325D01*
X113575Y-68325D02*
X114236Y-68325D01*
X113440Y-68460D02*
X113575Y-68325D01*
X112647Y-68460D02*
X113440Y-68460D01*
X117008Y-75337D02*
X109358Y-75337D01*
X109358Y-75337D02*
X108070Y-76625D01*
X102870Y-68000D02*
X102870Y-67770D01*
X103188Y-71500D02*
X103188Y-71088D01*
X91400Y-69000D02*
X91400Y-71700D01*
X92900Y-67500D02*
X91400Y-69000D01*
X99800Y-67500D02*
X92900Y-67500D01*
X100000Y-67700D02*
X99800Y-67500D01*
X100000Y-68500D02*
X100000Y-67700D01*
X101000Y-69500D02*
X100000Y-68500D01*
X101600Y-69500D02*
X101000Y-69500D01*
X103188Y-71088D02*
X101600Y-69500D01*
X62226Y-77580D02*
X65145Y-77580D01*
X65145Y-77580D02*
X65300Y-77425D01*
X67913Y-77500D02*
X67863Y-77550D01*
X65425Y-77550D02*
X65300Y-77425D01*
X67863Y-77550D02*
X65425Y-77550D01*
X86830Y-71750D02*
X86830Y-76219D01*
X86830Y-76219D02*
X86800Y-76250D01*
X69225Y-77575D02*
X67988Y-77575D01*
X67988Y-77575D02*
X67913Y-77500D01*
X85450Y-77580D02*
X85470Y-77580D01*
X85470Y-77580D02*
X86800Y-76250D01*
X86800Y-76250D02*
X88300Y-74750D01*
X88300Y-74750D02*
X90850Y-74750D01*
X90850Y-74750D02*
X91400Y-74200D01*
X91400Y-74200D02*
X91400Y-71700D01*
X91400Y-71700D02*
X91400Y-71450D01*
X91400Y-71650D02*
X91400Y-71450D01*
X84550Y-77580D02*
X85450Y-77580D01*
X103188Y-71500D02*
X103188Y-72338D01*
X110135Y-74350D02*
X110585Y-73900D01*
X109050Y-74350D02*
X110135Y-74350D01*
X108300Y-75100D02*
X109050Y-74350D01*
X105950Y-75100D02*
X108300Y-75100D01*
X103188Y-72338D02*
X105950Y-75100D01*
X100314Y-75848D02*
X108502Y-75848D01*
X118398Y-75848D02*
X119212Y-75848D01*
X117600Y-75050D02*
X118398Y-75848D01*
X109300Y-75050D02*
X117600Y-75050D01*
X108502Y-75848D02*
X109300Y-75050D01*
X119212Y-75848D02*
X120352Y-75848D01*
X120500Y-75700D02*
X120352Y-75848D01*
X110712Y-73773D02*
X110585Y-73900D01*
X110712Y-73773D02*
X110712Y-69450D01*
X84500Y-77580D02*
X84550Y-77580D01*
X84550Y-77580D02*
X84570Y-77580D01*
X81124Y-77580D02*
X84500Y-77580D01*
X80280Y-77580D02*
X81124Y-77580D01*
X79150Y-76450D02*
X80280Y-77580D01*
X70350Y-76450D02*
X79150Y-76450D01*
X69220Y-77580D02*
X69225Y-77575D01*
X69225Y-77575D02*
X70350Y-76450D01*
X88765Y-68240D02*
X89360Y-68240D01*
X89500Y-66000D02*
X90100Y-65400D01*
X89500Y-68100D02*
X89500Y-66000D01*
X89360Y-68240D02*
X89500Y-68100D01*
X108115Y-60700D02*
X108115Y-60315D01*
X104650Y-65300D02*
X104750Y-65400D01*
X104650Y-62900D02*
X104650Y-65300D01*
X104850Y-62700D02*
X104650Y-62900D01*
X105200Y-62700D02*
X104850Y-62700D01*
X105400Y-62500D02*
X105200Y-62700D01*
X105400Y-61500D02*
X105400Y-62500D01*
X105650Y-61250D02*
X105400Y-61500D01*
X106550Y-61250D02*
X105650Y-61250D01*
X106650Y-61150D02*
X106550Y-61250D01*
X106650Y-60450D02*
X106650Y-61150D01*
X106950Y-60150D02*
X106650Y-60450D01*
X107950Y-60150D02*
X106950Y-60150D01*
X108115Y-60315D02*
X107950Y-60150D01*
X109938Y-62450D02*
X109700Y-62450D01*
X108115Y-60865D02*
X108115Y-60700D01*
X109700Y-62450D02*
X108115Y-60865D01*
X105968Y-71700D02*
X106100Y-71700D01*
X106100Y-71700D02*
X107000Y-70800D01*
X107000Y-70800D02*
X107000Y-69150D01*
X107000Y-69150D02*
X107375Y-68775D01*
X107375Y-68775D02*
X108147Y-68775D01*
X104968Y-70700D02*
X105200Y-70700D01*
X105200Y-70700D02*
X105700Y-71200D01*
X105700Y-71200D02*
X106250Y-71200D01*
X106250Y-71200D02*
X106750Y-70700D01*
X106750Y-70700D02*
X106750Y-69050D01*
X106750Y-69050D02*
X107340Y-68460D01*
X107340Y-68460D02*
X108147Y-68460D01*
X95055Y-61000D02*
X98055Y-61000D01*
X98055Y-61000D02*
X98055Y-61005D01*
X103850Y-69600D02*
X104592Y-70342D01*
X103850Y-67750D02*
X103850Y-69600D01*
X102800Y-66700D02*
X103850Y-67750D01*
X99500Y-66700D02*
X102800Y-66700D01*
X98950Y-66150D02*
X99500Y-66700D01*
X98950Y-61900D02*
X98950Y-66150D01*
X98055Y-61005D02*
X98950Y-61900D01*
X105469Y-70200D02*
X105968Y-69700D01*
X104735Y-70200D02*
X105469Y-70200D01*
X104435Y-70500D02*
X104592Y-70342D01*
X104592Y-70342D02*
X104735Y-70200D01*
X104435Y-70950D02*
X104435Y-70500D01*
X104685Y-71200D02*
X104435Y-70950D01*
X105185Y-71200D02*
X104685Y-71200D01*
X105485Y-71500D02*
X105185Y-71200D01*
X105485Y-72150D02*
X105485Y-71500D01*
X105585Y-72250D02*
X105485Y-72150D01*
X106385Y-72250D02*
X105585Y-72250D01*
X108685Y-69950D02*
X106385Y-72250D01*
X109035Y-69950D02*
X108685Y-69950D01*
X109137Y-69848D02*
X109035Y-69950D01*
X109137Y-69450D02*
X109137Y-69848D01*
X111342Y-69450D02*
X111342Y-70547D01*
X111342Y-70547D02*
X112295Y-71500D01*
X106500Y-70168D02*
X105968Y-70700D01*
X106500Y-68950D02*
X106500Y-70168D01*
X107305Y-68145D02*
X106500Y-68950D01*
X108147Y-68145D02*
X107305Y-68145D01*
X111657Y-69450D02*
X111657Y-69862D01*
X111657Y-69862D02*
X113295Y-71500D01*
X111363Y-60200D02*
X119814Y-60200D01*
X120141Y-60527D02*
X120141Y-61859D01*
X119814Y-60200D02*
X120141Y-60527D01*
G54D55*
X120732Y-61535D02*
X120465Y-61535D01*
X119100Y-62900D02*
X119100Y-62879D01*
X120465Y-61535D02*
X120141Y-61859D01*
X120141Y-61859D02*
X119100Y-62900D01*
X119551Y-61535D02*
X119551Y-62429D01*
X119551Y-62429D02*
X119100Y-62879D01*
X119100Y-62879D02*
X117779Y-64200D01*
G54D54*
X112038Y-62450D02*
X113849Y-62450D01*
X113849Y-62450D02*
X113940Y-62541D01*
X113940Y-62541D02*
X114372Y-62541D01*
X115622Y-64700D02*
X115779Y-64700D01*
X114826Y-63905D02*
X115622Y-64700D01*
X114826Y-62996D02*
X114826Y-63905D01*
X114372Y-62541D02*
X114826Y-62996D01*
G54D55*
X121913Y-61535D02*
X123496Y-61535D01*
X123496Y-61535D02*
X125161Y-63200D01*
X115779Y-64700D02*
X116250Y-64700D01*
X116250Y-64700D02*
X116800Y-64150D01*
X116800Y-64150D02*
X116800Y-63800D01*
X116800Y-63800D02*
X118370Y-62231D01*
X118370Y-62231D02*
X118370Y-61535D01*
G54D54*
X108503Y-73500D02*
X109035Y-73500D01*
X109922Y-72613D02*
X109922Y-72000D01*
X109035Y-73500D02*
X109922Y-72613D01*
X110397Y-71524D02*
X109922Y-72000D01*
X110397Y-69450D02*
X110397Y-71524D01*
X109922Y-71000D02*
X109535Y-71386D01*
X107047Y-73038D02*
X107047Y-73500D01*
X107485Y-72600D02*
X107047Y-73038D01*
X109385Y-72600D02*
X107485Y-72600D01*
X109535Y-72450D02*
X109385Y-72600D01*
X109535Y-71386D02*
X109535Y-72450D01*
X110082Y-69450D02*
X110082Y-70839D01*
X110082Y-70839D02*
X109922Y-71000D01*
X72302Y-73226D02*
X72302Y-73997D01*
X72302Y-73997D02*
X72300Y-74000D01*
X84265Y-71075D02*
X83625Y-71075D01*
X82200Y-74000D02*
X81791Y-74000D01*
X83050Y-73150D02*
X82200Y-74000D01*
X83050Y-71650D02*
X83050Y-73150D01*
X83625Y-71075D02*
X83050Y-71650D01*
X77441Y-73500D02*
X78250Y-73500D01*
X84265Y-70760D02*
X83440Y-70760D01*
X80950Y-73000D02*
X80791Y-73000D01*
X81450Y-73500D02*
X80950Y-73000D01*
X82050Y-73500D02*
X81450Y-73500D01*
X82700Y-72850D02*
X82050Y-73500D01*
X82700Y-71500D02*
X82700Y-72850D01*
X83440Y-70760D02*
X82700Y-71500D01*
X98110Y-75337D02*
X89099Y-75337D01*
X89099Y-75337D02*
X86811Y-77625D01*
X66550Y-77925D02*
X67338Y-77925D01*
X67338Y-77925D02*
X67913Y-78500D01*
X62226Y-77830D02*
X66455Y-77830D01*
X66455Y-77830D02*
X66550Y-77925D01*
X87145Y-71750D02*
X87145Y-74595D01*
X88125Y-75425D02*
X87975Y-75425D01*
X88300Y-75600D02*
X88125Y-75425D01*
X87145Y-74595D02*
X87550Y-75000D01*
X69325Y-77825D02*
X68588Y-77825D01*
X68588Y-77825D02*
X67913Y-78500D01*
X111027Y-69450D02*
X111027Y-70577D01*
X111800Y-73435D02*
X111335Y-73900D01*
X111800Y-71350D02*
X111800Y-73435D01*
X111027Y-70577D02*
X111800Y-71350D01*
X120450Y-74950D02*
X119807Y-75593D01*
X119212Y-75593D02*
X119807Y-75593D01*
X81124Y-77830D02*
X85570Y-77830D01*
X88400Y-75000D02*
X98550Y-75000D01*
X85570Y-77830D02*
X87975Y-75425D01*
X87975Y-75425D02*
X88400Y-75000D01*
X100314Y-75593D02*
X108407Y-75593D01*
X118493Y-75593D02*
X119212Y-75593D01*
X117749Y-74849D02*
X118493Y-75593D01*
X109150Y-74849D02*
X117749Y-74849D01*
X108407Y-75593D02*
X109150Y-74849D01*
X101350Y-75000D02*
X102235Y-75000D01*
X100150Y-75000D02*
X101350Y-75000D01*
X103188Y-74046D02*
X103188Y-73500D01*
X102235Y-75000D02*
X103188Y-74046D01*
X98550Y-75000D02*
X100150Y-75000D01*
X99443Y-75593D02*
X100314Y-75593D01*
X98550Y-75000D02*
X98850Y-75000D01*
X98850Y-75000D02*
X99443Y-75593D01*
X69320Y-77830D02*
X69325Y-77825D01*
X69325Y-77825D02*
X70450Y-76700D01*
X70450Y-76700D02*
X79050Y-76700D01*
X79050Y-76700D02*
X80180Y-77830D01*
X80180Y-77830D02*
X81124Y-77830D01*
G54D55*
X53149Y-84000D02*
X51968Y-84000D01*
X126968Y-84000D02*
X125787Y-84000D01*
G54D54*
X62226Y-78600D02*
X66500Y-78600D01*
X70694Y-77580D02*
X78324Y-77580D01*
X69674Y-78600D02*
X70694Y-77580D01*
X69274Y-79000D02*
X69674Y-78600D01*
X66900Y-79000D02*
X69274Y-79000D01*
X66500Y-78600D02*
X66900Y-79000D01*
G54D55*
X59134Y-72933D02*
X59964Y-72933D01*
X59964Y-72933D02*
X60433Y-73401D01*
X60433Y-73401D02*
X60433Y-75000D01*
G54D54*
X60826Y-83500D02*
X60826Y-78226D01*
X60326Y-84000D02*
X60826Y-83500D01*
X60236Y-84000D02*
X60326Y-84000D01*
X60826Y-78226D02*
X60850Y-78250D01*
X59426Y-77820D02*
X60420Y-77820D01*
X61200Y-78600D02*
X62226Y-78600D01*
X60420Y-77820D02*
X60850Y-78250D01*
X60850Y-78250D02*
X61200Y-78600D01*
X78324Y-77580D02*
X79276Y-77580D01*
X79276Y-77580D02*
X80296Y-78600D01*
X80296Y-78600D02*
X81124Y-78600D01*
X78324Y-77580D02*
X78324Y-77320D01*
X59426Y-77820D02*
X59426Y-77580D01*
X59426Y-77580D02*
X59426Y-77320D01*
X81791Y-72000D02*
X81450Y-72000D01*
X80950Y-71500D02*
X79200Y-71500D01*
X81450Y-72000D02*
X80950Y-71500D01*
X79157Y-63000D02*
X76157Y-63000D01*
X81791Y-72000D02*
X81791Y-72008D01*
X85255Y-72144D02*
X85255Y-71750D01*
X85100Y-72300D02*
X85255Y-72144D01*
X84950Y-72300D02*
X85100Y-72300D01*
X82700Y-74550D02*
X84950Y-72300D01*
X81350Y-74550D02*
X82700Y-74550D01*
X81300Y-74500D02*
X81350Y-74550D01*
X81300Y-73750D02*
X81300Y-74500D01*
X81050Y-73500D02*
X81300Y-73750D01*
X80450Y-73500D02*
X81050Y-73500D01*
X80250Y-73300D02*
X80450Y-73500D01*
X80250Y-72800D02*
X80250Y-73300D01*
X80550Y-72500D02*
X80250Y-72800D01*
X81300Y-72500D02*
X80550Y-72500D01*
X81791Y-72008D02*
X81300Y-72500D01*
X77441Y-72500D02*
X78250Y-72500D01*
X84265Y-70445D02*
X83305Y-70445D01*
X82400Y-72391D02*
X81791Y-73000D01*
X82400Y-71350D02*
X82400Y-72391D01*
X83305Y-70445D02*
X82400Y-71350D01*
X77441Y-74500D02*
X78300Y-74500D01*
X89550Y-69500D02*
X88765Y-69500D01*
X59426Y-78600D02*
X58250Y-78600D01*
X87775Y-72875D02*
X87775Y-71750D01*
X88350Y-73450D02*
X87775Y-72875D01*
X58250Y-78600D02*
X58100Y-78450D01*
X78324Y-78600D02*
X77700Y-78600D01*
X87460Y-73560D02*
X87460Y-71750D01*
X87550Y-73650D02*
X87460Y-73560D01*
X77700Y-78600D02*
X77550Y-78450D01*
X88765Y-70445D02*
X89795Y-70445D01*
X89795Y-70445D02*
X89800Y-70450D01*
X86004Y-74000D02*
X86004Y-74672D01*
X86004Y-74672D02*
X85177Y-75500D01*
X86515Y-71750D02*
X86515Y-73489D01*
X86515Y-73489D02*
X86004Y-74000D01*
X86004Y-73000D02*
X86004Y-73095D01*
X83720Y-74979D02*
X83720Y-75500D01*
X84100Y-74600D02*
X83720Y-74979D01*
X85450Y-74600D02*
X84100Y-74600D01*
X85650Y-74400D02*
X85450Y-74600D01*
X85650Y-73450D02*
X85650Y-74400D01*
X86004Y-73095D02*
X85650Y-73450D01*
X86200Y-71750D02*
X86200Y-72804D01*
X86200Y-72804D02*
X86004Y-73000D01*
X108147Y-67200D02*
X107688Y-67200D01*
X107688Y-67200D02*
X106889Y-68000D01*
X106889Y-68000D02*
X106083Y-68000D01*
X81121Y-70500D02*
X80650Y-70500D01*
X68900Y-74225D02*
X69174Y-74500D01*
X68900Y-72500D02*
X68900Y-74225D01*
X71400Y-70000D02*
X68900Y-72500D01*
X80150Y-70000D02*
X71400Y-70000D01*
X80650Y-70500D02*
X80150Y-70000D01*
X71241Y-74500D02*
X73700Y-74500D01*
X80691Y-71900D02*
X80791Y-72000D01*
X76300Y-71900D02*
X80691Y-71900D01*
X73700Y-74500D02*
X76300Y-71900D01*
X69174Y-74500D02*
X69220Y-74500D01*
X69220Y-74500D02*
X69970Y-75250D01*
X69970Y-75250D02*
X74050Y-75250D01*
X74050Y-75250D02*
X76300Y-73000D01*
X76300Y-73000D02*
X79950Y-73000D01*
X71241Y-74500D02*
X71241Y-73335D01*
X71241Y-73335D02*
X71350Y-73226D01*
X66357Y-74500D02*
X66357Y-75057D01*
X80450Y-75900D02*
X81350Y-75000D01*
X67200Y-75900D02*
X80450Y-75900D01*
X66357Y-75057D02*
X67200Y-75900D01*
X79950Y-74000D02*
X79900Y-74000D01*
X79900Y-74000D02*
X79950Y-74000D01*
X79950Y-73000D02*
X80000Y-73000D01*
X80000Y-73000D02*
X79950Y-73000D01*
X111614Y-77375D02*
X110728Y-77375D01*
X110728Y-77375D02*
X109842Y-77375D01*
X109842Y-77375D02*
X108956Y-77375D01*
X108956Y-77375D02*
X108070Y-77375D01*
X108070Y-77375D02*
X106594Y-77375D01*
X106594Y-77375D02*
X105708Y-77375D01*
X80791Y-72000D02*
X80650Y-72000D01*
X79950Y-72750D02*
X79950Y-73000D01*
X79950Y-72700D02*
X79950Y-72750D01*
X80650Y-72000D02*
X79950Y-72700D01*
X84900Y-73000D02*
X85254Y-73000D01*
X82900Y-75000D02*
X84900Y-73000D01*
X80850Y-75000D02*
X81350Y-75000D01*
X81350Y-75000D02*
X82900Y-75000D01*
X79950Y-74100D02*
X80850Y-75000D01*
X79950Y-73000D02*
X79950Y-74000D01*
X79950Y-74000D02*
X79950Y-74100D01*
X83642Y-66500D02*
X83642Y-66457D01*
X83642Y-66457D02*
X84300Y-65800D01*
X105826Y-60500D02*
X106150Y-60500D01*
X109938Y-61688D02*
X109938Y-61950D01*
X108150Y-59900D02*
X109938Y-61688D01*
X106749Y-59900D02*
X108150Y-59900D01*
X106150Y-60500D02*
X106749Y-59900D01*
X54212Y-68630D02*
X53530Y-68630D01*
X55821Y-64450D02*
X56771Y-63500D01*
X54550Y-64450D02*
X55821Y-64450D01*
X52750Y-66250D02*
X54550Y-64450D01*
X52750Y-67850D02*
X52750Y-66250D01*
X53530Y-68630D02*
X52750Y-67850D01*
X56771Y-73500D02*
X56400Y-73500D01*
X53580Y-78630D02*
X54212Y-78630D01*
X52750Y-77800D02*
X53580Y-78630D01*
X52750Y-76000D02*
X52750Y-77800D01*
X54300Y-74450D02*
X52750Y-76000D01*
X55450Y-74450D02*
X54300Y-74450D01*
X56400Y-73500D02*
X55450Y-74450D01*
X67913Y-79500D02*
X68094Y-79500D01*
X68969Y-80375D02*
X69685Y-80375D01*
X68094Y-79500D02*
X68969Y-80375D01*
X58169Y-77125D02*
X57775Y-77125D01*
X57775Y-77125D02*
X57650Y-77250D01*
X57650Y-77250D02*
X57650Y-77482D01*
X57650Y-77482D02*
X56502Y-78630D01*
X56502Y-78630D02*
X54212Y-78630D01*
X59050Y-76950D02*
X58344Y-76950D01*
X58344Y-76950D02*
X58169Y-77125D01*
X85255Y-67250D02*
X85255Y-68555D01*
X85255Y-68555D02*
X87775Y-71075D01*
X87775Y-67250D02*
X87775Y-71075D01*
X87750Y-71050D02*
X87750Y-71075D01*
X87775Y-71075D02*
X87750Y-71050D01*
X87750Y-71050D02*
X87750Y-71050D01*
X85885Y-71750D02*
X85885Y-71214D01*
X86025Y-71075D02*
X87750Y-71075D01*
X87750Y-71075D02*
X88765Y-71075D01*
X85885Y-71214D02*
X86025Y-71075D01*
X82854Y-65000D02*
X82854Y-65291D01*
X83642Y-66079D02*
X83642Y-66500D01*
X82854Y-65291D02*
X83642Y-66079D01*
X83642Y-66500D02*
X85000Y-66500D01*
X85255Y-66755D02*
X85255Y-67250D01*
X85000Y-66500D02*
X85255Y-66755D01*
X105826Y-60500D02*
X105826Y-60276D01*
X104350Y-69082D02*
X104968Y-69700D01*
X104350Y-60150D02*
X104350Y-69082D01*
X104550Y-59950D02*
X104350Y-60150D01*
X105500Y-59950D02*
X104550Y-59950D01*
X105826Y-60276D02*
X105500Y-59950D01*
X84265Y-69185D02*
X83196Y-69185D01*
X83196Y-69185D02*
X82381Y-70000D01*
X82381Y-70000D02*
X81200Y-70000D01*
X81200Y-70000D02*
X81121Y-70079D01*
X81121Y-70079D02*
X81121Y-70500D01*
X85254Y-73000D02*
X85254Y-72995D01*
X85885Y-72364D02*
X85885Y-71750D01*
X85254Y-72995D02*
X85885Y-72364D01*
X85254Y-74000D02*
X85254Y-73000D01*
X88765Y-71075D02*
X88765Y-71840D01*
X88765Y-71840D02*
X89425Y-72500D01*
X60050Y-63388D02*
X60050Y-64900D01*
X61025Y-65875D02*
X61712Y-65875D01*
X60050Y-64900D02*
X61025Y-65875D01*
X96850Y-73500D02*
X96850Y-73850D01*
X99212Y-73837D02*
X99212Y-73500D01*
X99000Y-74050D02*
X99212Y-73837D01*
X97050Y-74050D02*
X99000Y-74050D01*
X96850Y-73850D02*
X97050Y-74050D01*
G54D55*
X56771Y-63500D02*
X59938Y-63500D01*
X59938Y-63500D02*
X60050Y-63388D01*
G54D54*
X108147Y-66885D02*
X107503Y-66885D01*
X105833Y-67500D02*
X105333Y-68000D01*
X106889Y-67500D02*
X105833Y-67500D01*
X107503Y-66885D02*
X106889Y-67500D01*
X105333Y-68000D02*
X105333Y-69335D01*
X105333Y-69335D02*
X104968Y-69700D01*
X61400Y-78350D02*
X62226Y-78350D01*
X60000Y-76950D02*
X61400Y-78350D01*
X59000Y-76950D02*
X59050Y-76950D01*
X59050Y-76950D02*
X60000Y-76950D01*
G54D55*
X58384Y-72933D02*
X58384Y-73936D01*
X58384Y-73936D02*
X59448Y-75000D01*
X58384Y-72933D02*
X57338Y-72933D01*
X57338Y-72933D02*
X56771Y-73500D01*
G54D54*
X119210Y-76108D02*
X120742Y-76108D01*
X121425Y-75125D02*
X122834Y-75125D01*
X121050Y-75500D02*
X121425Y-75125D01*
X121050Y-75800D02*
X121050Y-75500D01*
X120742Y-76108D02*
X121050Y-75800D01*
X109172Y-71000D02*
X109172Y-72000D01*
X109767Y-69450D02*
X109767Y-69984D01*
X109172Y-70579D02*
X109172Y-71000D01*
X109767Y-69984D02*
X109172Y-70579D01*
G54D55*
X113645Y-73575D02*
X112713Y-73575D01*
X112713Y-73575D02*
X112712Y-73574D01*
X113645Y-60825D02*
X112410Y-60825D01*
X112410Y-60825D02*
X112409Y-60826D01*
G54D54*
X109938Y-61950D02*
X110350Y-61950D01*
X110350Y-61950D02*
X110500Y-62100D01*
X110500Y-62100D02*
X110500Y-63750D01*
X110500Y-63750D02*
X110000Y-64250D01*
X110000Y-64250D02*
X109137Y-64250D01*
X109137Y-64950D02*
X109137Y-64250D01*
X109137Y-64250D02*
X109137Y-64212D01*
X108625Y-63700D02*
X108115Y-63700D01*
X109137Y-64212D02*
X108625Y-63700D01*
X99685Y-70250D02*
X100240Y-70250D01*
X99212Y-69720D02*
X99444Y-69720D01*
X99492Y-70665D02*
X99212Y-70665D01*
X99685Y-70472D02*
X99492Y-70665D01*
X99685Y-69960D02*
X99685Y-70250D01*
X99685Y-70250D02*
X99685Y-70472D01*
X99444Y-69720D02*
X99685Y-69960D01*
X99212Y-68775D02*
X99212Y-69720D01*
X99212Y-68303D02*
X99212Y-68775D01*
X98267Y-70192D02*
X98267Y-69720D01*
X97795Y-70192D02*
X98267Y-70192D01*
X97795Y-70192D02*
X97795Y-70665D01*
X97322Y-70192D02*
X97795Y-70192D01*
X97322Y-69720D02*
X97322Y-70192D01*
X96850Y-68775D02*
X96850Y-68303D01*
X96850Y-69720D02*
X97322Y-69720D01*
X96850Y-69720D02*
X96850Y-68775D01*
X96850Y-69720D02*
X95761Y-69720D01*
X92725Y-68900D02*
X92125Y-69500D01*
X94940Y-68900D02*
X92725Y-68900D01*
X95761Y-69720D02*
X94940Y-68900D01*
X94692Y-73500D02*
X96850Y-73500D01*
X114236Y-69075D02*
X113675Y-69075D01*
X113375Y-68775D02*
X112647Y-68775D01*
X113675Y-69075D02*
X113375Y-68775D01*
X111657Y-64950D02*
X111657Y-66243D01*
X111657Y-66243D02*
X110150Y-67750D01*
X109137Y-64950D02*
X109137Y-66885D01*
X109100Y-66900D02*
X109100Y-66885D01*
X109100Y-66885D02*
X109285Y-66885D01*
X109285Y-66885D02*
X110150Y-67750D01*
X110150Y-67750D02*
X111175Y-68775D01*
X112647Y-68775D02*
X111175Y-68775D01*
X111175Y-68775D02*
X110075Y-68775D01*
X110075Y-68775D02*
X109767Y-69083D01*
X109767Y-69083D02*
X109767Y-69450D01*
G54D55*
X116007Y-60825D02*
X117188Y-60825D01*
X114826Y-60825D02*
X116007Y-60825D01*
X113645Y-60825D02*
X114826Y-60825D01*
X119551Y-60865D02*
X118370Y-60865D01*
X118370Y-60865D02*
X117228Y-60865D01*
X117228Y-60865D02*
X117188Y-60825D01*
X119551Y-73535D02*
X118370Y-73535D01*
X117188Y-73575D02*
X118330Y-73575D01*
X118330Y-73575D02*
X118370Y-73535D01*
X116007Y-73575D02*
X114826Y-73575D01*
X116007Y-73575D02*
X117188Y-73575D01*
X113645Y-73575D02*
X114826Y-73575D01*
G54D54*
X119210Y-76108D02*
X118706Y-76108D01*
X118110Y-76704D02*
X118110Y-80000D01*
X118706Y-76108D02*
X118110Y-76704D01*
X100312Y-76108D02*
X99604Y-76108D01*
X99212Y-76500D02*
X99212Y-80000D01*
X99604Y-76108D02*
X99212Y-76500D01*
X108661Y-77550D02*
X108661Y-77375D01*
X108700Y-77400D02*
X108956Y-77375D01*
X108686Y-77400D02*
X108700Y-77400D01*
X108661Y-77375D02*
X108686Y-77400D01*
X108161Y-85000D02*
X108661Y-84500D01*
X108661Y-84500D02*
X108661Y-77550D01*
X108070Y-85000D02*
X108161Y-85000D01*
X109842Y-77375D02*
X110728Y-77375D01*
X108070Y-77375D02*
X109842Y-77375D01*
X81124Y-78350D02*
X86786Y-78350D01*
X86786Y-78350D02*
X86811Y-78375D01*
X90354Y-78375D02*
X91535Y-78375D01*
X89173Y-78375D02*
X90354Y-78375D01*
X87992Y-78375D02*
X86811Y-78375D01*
X89173Y-78375D02*
X87992Y-78375D01*
X88582Y-85000D02*
X88968Y-85000D01*
X89468Y-78670D02*
X89173Y-78375D01*
X89468Y-84500D02*
X89468Y-78670D01*
X88968Y-85000D02*
X89468Y-84500D01*
X117519Y-85000D02*
X117610Y-85000D01*
X118110Y-79765D02*
X117008Y-78663D01*
X118110Y-84500D02*
X118110Y-80000D01*
X118110Y-80000D02*
X118110Y-79765D01*
X117610Y-85000D02*
X118110Y-84500D01*
X98622Y-85000D02*
X98712Y-85000D01*
X99212Y-79765D02*
X98110Y-78663D01*
X99212Y-84500D02*
X99212Y-80000D01*
X99212Y-80000D02*
X99212Y-79765D01*
X98712Y-85000D02*
X99212Y-84500D01*
X70866Y-80375D02*
X70275Y-80375D01*
X70275Y-80375D02*
X69685Y-80375D01*
X84265Y-68555D02*
X81926Y-68555D01*
X81926Y-68555D02*
X81871Y-68500D01*
X96850Y-70665D02*
X96039Y-70665D01*
X92625Y-70000D02*
X92125Y-70500D01*
X95374Y-70000D02*
X92625Y-70000D01*
X96039Y-70665D02*
X95374Y-70000D01*
X108147Y-66255D02*
X106339Y-66255D01*
X106339Y-66255D02*
X106083Y-66000D01*
X106889Y-67000D02*
X106083Y-67000D01*
X107318Y-66570D02*
X106889Y-67000D01*
X108147Y-66570D02*
X107318Y-66570D01*
X89500Y-63500D02*
X89200Y-63200D01*
X88250Y-63200D02*
X85600Y-60550D01*
X89200Y-63200D02*
X88250Y-63200D01*
X89500Y-63500D02*
X92600Y-66600D01*
X54212Y-68000D02*
X62800Y-68000D01*
X62800Y-68000D02*
X68800Y-62000D01*
X80100Y-60550D02*
X85600Y-60550D01*
X80050Y-60600D02*
X80100Y-60550D01*
X80050Y-61400D02*
X80050Y-60600D01*
X79450Y-62000D02*
X80050Y-61400D01*
X68800Y-62000D02*
X79450Y-62000D01*
X104700Y-67000D02*
X105333Y-67000D01*
X92600Y-66600D02*
X98150Y-66600D01*
X89750Y-63350D02*
X89350Y-62950D01*
X88399Y-62950D02*
X85699Y-60250D01*
X89350Y-62950D02*
X88399Y-62950D01*
X89750Y-63350D02*
X92350Y-65950D01*
X54212Y-67685D02*
X62715Y-67685D01*
X62715Y-67685D02*
X68650Y-61750D01*
X79950Y-60250D02*
X85699Y-60250D01*
X79800Y-60400D02*
X79950Y-60250D01*
X79800Y-61250D02*
X79800Y-60400D01*
X79300Y-61750D02*
X79800Y-61250D01*
X68650Y-61750D02*
X79300Y-61750D01*
X104750Y-66000D02*
X105333Y-66000D01*
X104700Y-66050D02*
X104750Y-66000D01*
X92350Y-65950D02*
X98100Y-65950D01*
X112647Y-66570D02*
X114909Y-66570D01*
X114909Y-66570D02*
X115779Y-65700D01*
X112647Y-66255D02*
X113945Y-66255D01*
X116779Y-65200D02*
X117779Y-66200D01*
X115000Y-65200D02*
X116779Y-65200D01*
X113945Y-66255D02*
X115000Y-65200D01*
X70491Y-74500D02*
X70491Y-74841D01*
X76250Y-72500D02*
X76691Y-72500D01*
X73750Y-75000D02*
X76250Y-72500D01*
X70650Y-75000D02*
X73750Y-75000D01*
X70491Y-74841D02*
X70650Y-75000D01*
X70365Y-73226D02*
X70365Y-74374D01*
X70365Y-74374D02*
X70491Y-74500D01*
X56022Y-67000D02*
X54582Y-67000D01*
X54582Y-67000D02*
X54212Y-67370D01*
G54D55*
X121913Y-72865D02*
X123496Y-72865D01*
X123496Y-72865D02*
X125161Y-71200D01*
X115779Y-69700D02*
X116550Y-69700D01*
X118370Y-72120D02*
X118370Y-72865D01*
X116800Y-70550D02*
X118370Y-72120D01*
X116800Y-69950D02*
X116800Y-70550D01*
X116550Y-69700D02*
X116800Y-69950D01*
X120732Y-72865D02*
X120420Y-72865D01*
X119255Y-71700D02*
X119255Y-71677D01*
X120420Y-72865D02*
X119255Y-71700D01*
X119551Y-72865D02*
X119551Y-71972D01*
X119551Y-71972D02*
X119255Y-71677D01*
X119255Y-71677D02*
X117779Y-70200D01*
G54D54*
X112647Y-67200D02*
X116779Y-67200D01*
X116779Y-67200D02*
X117779Y-68200D01*
G54D55*
X126342Y-63149D02*
X126342Y-63035D01*
X126342Y-63035D02*
X124172Y-60865D01*
G54D54*
X61712Y-65125D02*
X61712Y-63673D01*
X61712Y-63673D02*
X60050Y-62011D01*
G54D55*
X121913Y-73535D02*
X124114Y-73535D01*
X126342Y-71996D02*
X126342Y-67250D01*
X125538Y-72800D02*
X126342Y-71996D01*
X124850Y-72800D02*
X125538Y-72800D01*
X124114Y-73535D02*
X124850Y-72800D01*
X60050Y-62011D02*
X55898Y-62011D01*
X55898Y-62011D02*
X54409Y-63500D01*
X126342Y-67200D02*
X126342Y-67250D01*
X121913Y-60865D02*
X124172Y-60865D01*
X126342Y-67250D02*
X126342Y-63149D01*
X120732Y-60865D02*
X121913Y-60865D01*
X120732Y-73535D02*
X121913Y-73535D01*
G54D54*
X114909Y-67830D02*
X115779Y-68700D01*
X112647Y-67830D02*
X114909Y-67830D01*
X108822Y-69450D02*
X108250Y-69450D01*
X108250Y-69450D02*
X107950Y-69750D01*
X68424Y-74500D02*
X68424Y-74674D01*
X74712Y-75479D02*
X76691Y-73500D01*
X69229Y-75479D02*
X74712Y-75479D01*
X68424Y-74674D02*
X69229Y-75479D01*
X68397Y-73226D02*
X68397Y-74473D01*
X68397Y-74473D02*
X68424Y-74500D01*
X112647Y-66885D02*
X115594Y-66885D01*
X115594Y-66885D02*
X115779Y-66700D01*
X105038Y-62000D02*
X105038Y-60538D01*
X105038Y-60538D02*
X105000Y-60500D01*
X67107Y-74500D02*
X67107Y-74507D01*
X75491Y-75699D02*
X76691Y-74500D01*
X68300Y-75699D02*
X75491Y-75699D01*
X67107Y-74507D02*
X68300Y-75699D01*
X67413Y-73226D02*
X67413Y-74193D01*
X67413Y-74193D02*
X67107Y-74500D01*
G54D55*
X117188Y-72825D02*
X116007Y-72825D01*
X113645Y-72825D02*
X114826Y-72825D01*
X114826Y-72825D02*
X115551Y-72825D01*
X115551Y-72825D02*
X115779Y-72597D01*
X115779Y-70700D02*
X115779Y-72597D01*
X115779Y-72597D02*
X116007Y-72825D01*
X114826Y-61575D02*
X115551Y-61575D01*
X115551Y-61575D02*
X115779Y-61804D01*
X114826Y-61575D02*
X116007Y-61575D01*
X114826Y-61575D02*
X113645Y-61575D01*
X116007Y-61575D02*
X117188Y-61575D01*
X115779Y-63700D02*
X115779Y-61804D01*
X115779Y-61804D02*
X116007Y-61575D01*
G54D54*
X93330Y-61000D02*
X94130Y-60200D01*
X112647Y-64347D02*
X112647Y-65625D01*
X112450Y-64150D02*
X112647Y-64347D01*
X111750Y-64150D02*
X112450Y-64150D01*
X110800Y-63200D02*
X111750Y-64150D01*
X110800Y-61900D02*
X110800Y-63200D01*
X108600Y-59700D02*
X110800Y-61900D01*
X104400Y-59700D02*
X108600Y-59700D01*
X104100Y-60000D02*
X104400Y-59700D01*
X104100Y-66149D02*
X104100Y-60000D01*
X103799Y-66450D02*
X104100Y-66149D01*
X99850Y-66450D02*
X103799Y-66450D01*
X99400Y-66000D02*
X99850Y-66450D01*
X99400Y-61400D02*
X99400Y-66000D01*
X98200Y-60200D02*
X99400Y-61400D01*
X94130Y-60200D02*
X98200Y-60200D01*
X90330Y-61000D02*
X93330Y-61000D01*
X69800Y-60000D02*
X88350Y-60000D01*
X88350Y-60000D02*
X92850Y-64500D01*
X92850Y-64500D02*
X98400Y-64500D01*
X56772Y-67000D02*
X62800Y-67000D01*
X62800Y-67000D02*
X69800Y-60000D01*
X105935Y-64500D02*
X105413Y-64500D01*
X107376Y-65940D02*
X105935Y-64500D01*
X108147Y-65940D02*
X107376Y-65940D01*
X108147Y-67515D02*
X108635Y-67515D01*
X108590Y-65940D02*
X108147Y-65940D01*
X108700Y-66050D02*
X108590Y-65940D01*
X108700Y-67450D02*
X108700Y-66050D01*
X108635Y-67515D02*
X108700Y-67450D01*
X100314Y-76616D02*
X105699Y-76616D01*
X105699Y-76616D02*
X105708Y-76625D01*
X98110Y-76360D02*
X92800Y-76360D01*
X92800Y-76360D02*
X91535Y-77625D01*
X98110Y-76104D02*
X91875Y-76104D01*
X91875Y-76104D02*
X90354Y-77625D01*
X98110Y-75848D02*
X90950Y-75848D01*
X90950Y-75848D02*
X89173Y-77625D01*
X98110Y-75593D02*
X90024Y-75593D01*
X90024Y-75593D02*
X87992Y-77625D01*
X108070Y-83000D02*
X108070Y-81375D01*
X106889Y-83000D02*
X106889Y-81375D01*
X105708Y-83000D02*
X105708Y-81375D01*
X104527Y-83000D02*
X104527Y-81375D01*
X103346Y-83000D02*
X103346Y-81375D01*
X102165Y-83000D02*
X102165Y-81375D01*
X98110Y-76616D02*
X94363Y-76616D01*
X94363Y-76616D02*
X90354Y-80625D01*
X98110Y-76872D02*
X95288Y-76872D01*
X95288Y-76872D02*
X91535Y-80625D01*
X100312Y-76360D02*
X105040Y-76360D01*
X106169Y-76200D02*
X106594Y-76625D01*
X105200Y-76200D02*
X106169Y-76200D01*
X105040Y-76360D02*
X105200Y-76200D01*
X100314Y-78663D02*
X100314Y-80113D01*
X100314Y-80113D02*
X99803Y-80625D01*
X100314Y-78407D02*
X100757Y-78407D01*
X100984Y-78634D02*
X100984Y-80625D01*
X100757Y-78407D02*
X100984Y-78634D01*
X100314Y-78152D02*
X100852Y-78152D01*
X102165Y-79465D02*
X102165Y-80625D01*
X100852Y-78152D02*
X102165Y-79465D01*
X100314Y-77896D02*
X101096Y-77896D01*
X103346Y-80146D02*
X103346Y-80625D01*
X101096Y-77896D02*
X103346Y-80146D01*
X100314Y-77640D02*
X101542Y-77640D01*
X101542Y-77640D02*
X104527Y-80625D01*
X95078Y-83000D02*
X95078Y-81375D01*
X98110Y-78407D02*
X97693Y-78407D01*
X98622Y-79972D02*
X98622Y-80625D01*
X97550Y-78900D02*
X98622Y-79972D01*
X97550Y-78550D02*
X97550Y-78900D01*
X97693Y-78407D02*
X97550Y-78550D01*
X98622Y-83000D02*
X98622Y-81375D01*
X97440Y-83000D02*
X97440Y-81375D01*
X96259Y-83000D02*
X96259Y-81375D01*
X93897Y-83000D02*
X93897Y-81375D01*
X92716Y-83000D02*
X92716Y-81375D01*
X91535Y-83000D02*
X91535Y-81375D01*
X90354Y-83000D02*
X90354Y-81375D01*
X98110Y-78152D02*
X97598Y-78152D01*
X97440Y-79140D02*
X97440Y-80625D01*
X97300Y-79000D02*
X97440Y-79140D01*
X97300Y-78450D02*
X97300Y-79000D01*
X97598Y-78152D02*
X97300Y-78450D01*
X98110Y-77896D02*
X97504Y-77896D01*
X96259Y-79140D02*
X96259Y-80625D01*
X97504Y-77896D02*
X96259Y-79140D01*
X98110Y-77640D02*
X97410Y-77640D01*
X95078Y-79971D02*
X95078Y-80625D01*
X97410Y-77640D02*
X95078Y-79971D01*
X98110Y-77128D02*
X96213Y-77128D01*
X96213Y-77128D02*
X92716Y-80625D01*
X98110Y-77384D02*
X97138Y-77384D01*
X97138Y-77384D02*
X93897Y-80625D01*
X100314Y-76872D02*
X104317Y-76872D01*
X104317Y-76872D02*
X108070Y-80625D01*
X100314Y-77384D02*
X102467Y-77384D01*
X102467Y-77384D02*
X105708Y-80625D01*
X100314Y-77128D02*
X103392Y-77128D01*
X103392Y-77128D02*
X106889Y-80625D01*
X100984Y-83000D02*
X100984Y-81375D01*
X99803Y-83000D02*
X99803Y-81375D01*
X112795Y-83000D02*
X112795Y-81375D01*
X117008Y-75593D02*
X109988Y-75593D01*
X109988Y-75593D02*
X108956Y-76625D01*
X119212Y-76616D02*
X122093Y-76616D01*
X122093Y-76616D02*
X122834Y-75875D01*
X119210Y-76360D02*
X121168Y-76360D01*
X121168Y-76360D02*
X121653Y-75875D01*
X118700Y-80625D02*
X118700Y-79749D01*
X119212Y-79237D02*
X119212Y-78663D01*
X118700Y-79749D02*
X119212Y-79237D01*
X119212Y-78407D02*
X119657Y-78407D01*
X119881Y-78631D02*
X119881Y-80625D01*
X119657Y-78407D02*
X119881Y-78631D01*
X119212Y-78152D02*
X119802Y-78152D01*
X121062Y-79412D02*
X121062Y-80625D01*
X119802Y-78152D02*
X121062Y-79412D01*
X119212Y-77896D02*
X120046Y-77896D01*
X122244Y-80094D02*
X122244Y-80625D01*
X120046Y-77896D02*
X122244Y-80094D01*
X119212Y-77640D02*
X120440Y-77640D01*
X120440Y-77640D02*
X123425Y-80625D01*
X117008Y-75848D02*
X110619Y-75848D01*
X110619Y-75848D02*
X109842Y-76625D01*
X117008Y-77384D02*
X116036Y-77384D01*
X116036Y-77384D02*
X112795Y-80625D01*
X117008Y-76104D02*
X111249Y-76104D01*
X111249Y-76104D02*
X110728Y-76625D01*
X117008Y-76360D02*
X111879Y-76360D01*
X111879Y-76360D02*
X111614Y-76625D01*
X117008Y-77640D02*
X116210Y-77640D01*
X113976Y-79873D02*
X113976Y-80625D01*
X116210Y-77640D02*
X113976Y-79873D01*
X119212Y-77384D02*
X121365Y-77384D01*
X121365Y-77384D02*
X124606Y-80625D01*
X117008Y-77896D02*
X116354Y-77896D01*
X115157Y-79092D02*
X115157Y-80625D01*
X116354Y-77896D02*
X115157Y-79092D01*
X117008Y-78152D02*
X116398Y-78152D01*
X116338Y-79138D02*
X116338Y-80625D01*
X116200Y-79000D02*
X116338Y-79138D01*
X116200Y-78350D02*
X116200Y-79000D01*
X116398Y-78152D02*
X116200Y-78350D01*
X55727Y-77000D02*
X54582Y-77000D01*
X54582Y-77000D02*
X54212Y-77370D01*
X119212Y-76872D02*
X123922Y-76872D01*
X126968Y-78668D02*
X126968Y-80625D01*
X125750Y-77450D02*
X126968Y-78668D01*
X124500Y-77450D02*
X125750Y-77450D01*
X123922Y-76872D02*
X124500Y-77450D01*
X117008Y-78407D02*
X116543Y-78407D01*
X117519Y-79969D02*
X117519Y-80625D01*
X116450Y-78900D02*
X117519Y-79969D01*
X116450Y-78500D02*
X116450Y-78900D01*
X116543Y-78407D02*
X116450Y-78500D01*
X121062Y-83000D02*
X121062Y-81375D01*
X109251Y-83000D02*
X109251Y-81375D01*
X110433Y-83000D02*
X110433Y-81375D01*
X111614Y-83000D02*
X111614Y-81375D01*
X117008Y-77128D02*
X115111Y-77128D01*
X115111Y-77128D02*
X111614Y-80625D01*
X117008Y-76872D02*
X114186Y-76872D01*
X114186Y-76872D02*
X110433Y-80625D01*
X117008Y-76616D02*
X113260Y-76616D01*
X113260Y-76616D02*
X109251Y-80625D01*
X126968Y-81375D02*
X126968Y-83000D01*
X119212Y-77128D02*
X122290Y-77128D01*
X122290Y-77128D02*
X125787Y-80625D01*
X125787Y-83000D02*
X125787Y-81375D01*
X124606Y-83000D02*
X124606Y-81375D01*
X123425Y-83000D02*
X123425Y-81375D01*
X122244Y-83000D02*
X122244Y-81375D01*
X119881Y-83000D02*
X119881Y-81375D01*
X118700Y-83000D02*
X118700Y-81375D01*
X113976Y-83000D02*
X113976Y-81375D01*
X115157Y-83000D02*
X115157Y-81375D01*
X116338Y-83000D02*
X116338Y-81375D01*
X117519Y-83000D02*
X117519Y-81375D01*
X60236Y-83000D02*
X60236Y-81459D01*
X60236Y-81459D02*
X59426Y-80650D01*
X61417Y-83000D02*
X61417Y-81459D01*
X61417Y-81459D02*
X62226Y-80650D01*
X62598Y-83000D02*
X62598Y-81701D01*
X62600Y-80400D02*
X62226Y-80400D01*
X62800Y-80600D02*
X62600Y-80400D01*
X62800Y-81500D02*
X62800Y-80600D01*
X62598Y-81701D02*
X62800Y-81500D01*
X62226Y-80140D02*
X62840Y-80140D01*
X63779Y-81079D02*
X63779Y-83000D01*
X62840Y-80140D02*
X63779Y-81079D01*
X62226Y-79880D02*
X63280Y-79880D01*
X64960Y-81560D02*
X64960Y-83000D01*
X63280Y-79880D02*
X64960Y-81560D01*
X62226Y-79630D02*
X63830Y-79630D01*
X66141Y-81941D02*
X66141Y-83000D01*
X63830Y-79630D02*
X66141Y-81941D01*
X59055Y-83000D02*
X59055Y-81655D01*
X59000Y-80400D02*
X59426Y-80400D01*
X58800Y-80600D02*
X59000Y-80400D01*
X58800Y-81400D02*
X58800Y-80600D01*
X59055Y-81655D02*
X58800Y-81400D01*
X57874Y-83000D02*
X57874Y-81025D01*
X58760Y-80140D02*
X59426Y-80140D01*
X57874Y-81025D02*
X58760Y-80140D01*
X56692Y-83000D02*
X56692Y-81607D01*
X58420Y-79880D02*
X59426Y-79880D01*
X56692Y-81607D02*
X58420Y-79880D01*
X59426Y-79630D02*
X57770Y-79630D01*
X55511Y-81888D02*
X55511Y-83000D01*
X57770Y-79630D02*
X55511Y-81888D01*
X59426Y-79370D02*
X57130Y-79370D01*
X54330Y-82169D02*
X54330Y-83000D01*
X57130Y-79370D02*
X54330Y-82169D01*
X59426Y-79110D02*
X56490Y-79110D01*
X53149Y-82450D02*
X53149Y-83000D01*
X56490Y-79110D02*
X53149Y-82450D01*
X62226Y-79370D02*
X64370Y-79370D01*
X67322Y-82322D02*
X67322Y-83000D01*
X64370Y-79370D02*
X67322Y-82322D01*
X62226Y-78860D02*
X65860Y-78860D01*
X69685Y-82685D02*
X69685Y-83000D01*
X65860Y-78860D02*
X69685Y-82685D01*
X62226Y-79110D02*
X65110Y-79110D01*
X68503Y-82503D02*
X68503Y-83000D01*
X65110Y-79110D02*
X68503Y-82503D01*
X78324Y-80140D02*
X77660Y-80140D01*
X76771Y-81028D02*
X76771Y-83000D01*
X77660Y-80140D02*
X76771Y-81028D01*
X78324Y-79880D02*
X77120Y-79880D01*
X75590Y-81409D02*
X75590Y-83000D01*
X77120Y-79880D02*
X75590Y-81409D01*
X78324Y-79630D02*
X76570Y-79630D01*
X74409Y-81790D02*
X74409Y-83000D01*
X76570Y-79630D02*
X74409Y-81790D01*
X78324Y-79370D02*
X75830Y-79370D01*
X73228Y-81971D02*
X73228Y-83000D01*
X75830Y-79370D02*
X73228Y-81971D01*
X78324Y-79110D02*
X75090Y-79110D01*
X72047Y-82152D02*
X72047Y-83000D01*
X75090Y-79110D02*
X72047Y-82152D01*
X78324Y-78860D02*
X74305Y-78860D01*
X70866Y-82299D02*
X70866Y-83000D01*
X74305Y-78860D02*
X70866Y-82299D01*
X78324Y-77820D02*
X71490Y-77820D01*
X71490Y-77820D02*
X69685Y-79625D01*
X81124Y-79880D02*
X82280Y-79880D01*
X83858Y-81458D02*
X83858Y-83000D01*
X82280Y-79880D02*
X83858Y-81458D01*
X59426Y-78860D02*
X56340Y-78860D01*
X52918Y-82050D02*
X51968Y-83000D01*
X53150Y-82050D02*
X52918Y-82050D01*
X56340Y-78860D02*
X53150Y-82050D01*
X81124Y-78860D02*
X85360Y-78860D01*
X88582Y-82082D02*
X88582Y-83000D01*
X85360Y-78860D02*
X88582Y-82082D01*
X81124Y-79110D02*
X84510Y-79110D01*
X87401Y-82001D02*
X87401Y-83000D01*
X84510Y-79110D02*
X87401Y-82001D01*
X81124Y-79370D02*
X83670Y-79370D01*
X86220Y-81920D02*
X86220Y-83000D01*
X83670Y-79370D02*
X86220Y-81920D01*
X81124Y-79630D02*
X82930Y-79630D01*
X85039Y-81739D02*
X85039Y-83000D01*
X82930Y-79630D02*
X85039Y-81739D01*
X81124Y-80140D02*
X81740Y-80140D01*
X82677Y-81077D02*
X82677Y-83000D01*
X81740Y-80140D02*
X82677Y-81077D01*
X88765Y-70130D02*
X89570Y-70130D01*
X100870Y-67420D02*
X100870Y-68000D01*
X100450Y-67000D02*
X100870Y-67420D01*
X92700Y-67000D02*
X100450Y-67000D01*
X89570Y-70130D02*
X92700Y-67000D01*
X81124Y-80400D02*
X81500Y-80400D01*
X81496Y-81603D02*
X81496Y-83000D01*
X81700Y-81400D02*
X81496Y-81603D01*
X81700Y-80600D02*
X81700Y-81400D01*
X81500Y-80400D02*
X81700Y-80600D01*
X80314Y-83000D02*
X80314Y-81459D01*
X80314Y-81459D02*
X81124Y-80650D01*
X79133Y-83000D02*
X79133Y-81459D01*
X79133Y-81459D02*
X78324Y-80650D01*
X78324Y-80400D02*
X77900Y-80400D01*
X77952Y-81652D02*
X77952Y-83000D01*
X77700Y-81400D02*
X77952Y-81652D01*
X77700Y-80600D02*
X77700Y-81400D01*
X77900Y-80400D02*
X77700Y-80600D01*
X59426Y-78090D02*
X58384Y-78090D01*
X58384Y-78090D02*
X58169Y-77875D01*
X78324Y-78090D02*
X72401Y-78090D01*
X72401Y-78090D02*
X70866Y-79625D01*
X89050Y-64850D02*
X89050Y-64550D01*
X89050Y-64550D02*
X85500Y-61000D01*
X83881Y-61000D02*
X85500Y-61000D01*
X89050Y-67640D02*
X88765Y-67925D01*
X89050Y-64850D02*
X89050Y-67640D01*
X80881Y-61000D02*
X83881Y-61000D01*
X85885Y-67250D02*
X85885Y-66814D01*
X87106Y-65593D02*
X87106Y-64755D01*
X85885Y-66814D02*
X87106Y-65593D01*
G54D55*
X58759Y-72067D02*
X55842Y-72067D01*
X55842Y-72067D02*
X54409Y-73500D01*
G54D54*
X61200Y-71400D02*
X61200Y-70100D01*
X64300Y-67000D02*
X66200Y-67000D01*
X61200Y-70100D02*
X64300Y-67000D01*
X56477Y-77000D02*
X56477Y-76472D01*
X65550Y-67000D02*
X66200Y-67000D01*
X66200Y-67000D02*
X81496Y-67000D01*
X61200Y-75300D02*
X61200Y-71400D01*
X61200Y-71400D02*
X61200Y-71350D01*
X60850Y-75650D02*
X61200Y-75300D01*
X57300Y-75650D02*
X60850Y-75650D01*
X56477Y-76472D02*
X57300Y-75650D01*
X84265Y-69815D02*
X84735Y-69815D01*
X84690Y-68240D02*
X84265Y-68240D01*
X84850Y-68400D02*
X84690Y-68240D01*
X84850Y-69700D02*
X84850Y-68400D01*
X84735Y-69815D02*
X84850Y-69700D01*
X81496Y-67000D02*
X81677Y-67000D01*
X82917Y-68240D02*
X84265Y-68240D01*
X81677Y-67000D02*
X82917Y-68240D01*
X110613Y-60200D02*
X110613Y-61282D01*
X111360Y-62950D02*
X112038Y-62950D01*
X111059Y-62649D02*
X111360Y-62950D01*
X111059Y-61728D02*
X111059Y-62649D01*
X110613Y-61282D02*
X111059Y-61728D01*
X112038Y-62950D02*
X112400Y-62950D01*
X113309Y-63859D02*
X113940Y-63859D01*
X112400Y-62950D02*
X113309Y-63859D01*
X84959Y-66000D02*
X84959Y-65659D01*
X84300Y-65000D02*
X83680Y-65000D01*
X84959Y-65659D02*
X84300Y-65000D01*
X109938Y-62950D02*
X109450Y-62950D01*
X108700Y-62200D02*
X108115Y-62200D01*
X109450Y-62950D02*
X108700Y-62200D01*
X61500Y-71550D02*
X61500Y-70150D01*
X56715Y-77685D02*
X57050Y-77350D01*
X57050Y-77350D02*
X57050Y-76350D01*
X57050Y-76350D02*
X57450Y-75950D01*
X57450Y-75950D02*
X61000Y-75950D01*
X61000Y-75950D02*
X61500Y-75450D01*
X61500Y-75450D02*
X61500Y-71550D01*
X54212Y-77685D02*
X56715Y-77685D01*
X63150Y-68500D02*
X64950Y-68500D01*
X61500Y-70150D02*
X63150Y-68500D01*
X64550Y-68500D02*
X64950Y-68500D01*
X64950Y-68500D02*
X81121Y-68500D01*
X100984Y-73875D02*
X100275Y-73875D01*
X100250Y-73900D02*
X100275Y-73875D01*
X100984Y-73875D02*
X102322Y-73875D01*
X100200Y-72659D02*
X100984Y-71875D01*
X100200Y-73050D02*
X100200Y-72659D01*
X102322Y-71875D02*
X100984Y-71875D01*
X100984Y-71875D02*
X100802Y-71875D01*
X100846Y-71875D02*
X100802Y-71875D01*
X81121Y-69500D02*
X76400Y-69500D01*
X61800Y-70250D02*
X61800Y-71850D01*
X62350Y-69700D02*
X61800Y-70250D01*
X76200Y-69700D02*
X62350Y-69700D01*
X76400Y-69500D02*
X76200Y-69700D01*
X54212Y-78000D02*
X56850Y-78000D01*
X61800Y-75650D02*
X61800Y-71850D01*
X61800Y-71850D02*
X61800Y-71850D01*
X61200Y-76250D02*
X61800Y-75650D01*
X57650Y-76250D02*
X61200Y-76250D01*
X57400Y-76500D02*
X57650Y-76250D01*
X57400Y-77450D02*
X57400Y-76500D01*
X56850Y-78000D02*
X57400Y-77450D01*
X84265Y-68870D02*
X82501Y-68870D01*
X82501Y-68870D02*
X81871Y-69500D01*
M02*
